<?xml version="1.0" standalone="no"?>
<!DOCTYPE svg PUBLIC "-//W3C//DTD SVG 1.1//EN" "http://www.w3.org/Graphics/SVG/1.1/DTD/svg11.dtd" >
<svg xmlns="http://www.w3.org/2000/svg">
<metadata></metadata>
<defs>
<font id="antennaregular" horiz-adv-x="1270" >
<font-face units-per-em="2048" ascent="1638" descent="-410" />
<missing-glyph horiz-adv-x="481" />
<glyph unicode="&#xfb01;" horiz-adv-x="1247" d="M63 989v141h672v-141h-672zM276 0v1235q0 78 15 143.5t53 112t103 72.5t165 26h123v-137h-106q-60 0 -98.5 -16.5t-61 -45.5t-31 -68.5t-8.5 -86.5v-1235h-154zM926 0v1130h155v-1130h-155zM926 1280v221h155v-221h-155z" />
<glyph unicode="&#xfb02;" horiz-adv-x="1358" d="M63 989v141h672v-141h-672zM276 0v1249q0 78 15 143.5t53 112.5t103 73t165 26h123v-138h-106q-60 0 -98.5 -16.5t-61 -45.5t-31 -68.5t-8.5 -86.5v-1249h-154zM926 270v1319h155v-1302q0 -42 4 -70.5t17.5 -46t39 -25.5t68.5 -8h50v-135q-13 -2 -39 -3t-60 -1 q-69 0 -114.5 15.5t-72 48.5t-37.5 84.5t-11 123.5z" />
<glyph unicode="&#xfb03;" horiz-adv-x="1896" d="M63 989v141h1323v-141h-1323zM276 0v1235q0 78 15 143.5t53 112t103 72.5t165 26h123v-137h-106q-60 0 -98.5 -16.5t-61 -45.5t-31 -68.5t-8.5 -86.5v-1235h-154zM926 0v1235q0 78 15 143.5t53 112t103 72.5t165 26h124v-137h-108q-59 0 -97.5 -16.5t-60.5 -45.5 t-30.5 -68.5t-8.5 -86.5v-1235h-155zM1575 1280v221h158v-221h-158zM1577 0v1130h154v-1130h-154z" />
<glyph unicode="&#xfb04;" horiz-adv-x="2009" d="M63 989v141h1323v-141h-1323zM276 0v1235q0 78 15 143.5t53 112t103 72.5t165 26h123v-137h-106q-60 0 -98.5 -16.5t-61 -45.5t-31 -68.5t-8.5 -86.5v-1235h-154zM926 0v1235q0 78 15 143.5t53 112t103 72.5t165 26h124v-137h-108q-59 0 -97.5 -16.5t-60.5 -45.5 t-30.5 -68.5t-8.5 -86.5v-1235h-155zM1577 270v1319h154v-1302q0 -42 4 -70.5t17.5 -46t39 -25.5t68.5 -8h49v-135q-11 -2 -39 -3t-60 -1q-68 0 -113 15.5t-71.5 48.5t-37.5 84.5t-11 123.5z" />
<glyph horiz-adv-x="2048" />
<glyph horiz-adv-x="2048" />
<glyph unicode="&#xd;" horiz-adv-x="481" />
<glyph unicode=" "  horiz-adv-x="481" />
<glyph unicode="&#x09;" horiz-adv-x="481" />
<glyph unicode="&#xa0;" horiz-adv-x="481" />
<glyph unicode="!" horiz-adv-x="733" d="M264 0v225h205v-225h-205zM281 1518h172l-19 -1100h-135z" />
<glyph unicode="&#x22;" horiz-adv-x="981" d="M201 1518h159l-12 -586h-133zM621 1518h159l-12 -586h-135z" />
<glyph unicode="#" horiz-adv-x="1507" d="M135 455v141h273l61 322h-334v143h363l88 457h149l-90 -457h330l90 457h147l-86 -457h248v-143h-276l-62 -322h338v-141h-364l-88 -455h-150l88 455h-328l-88 -455h-151l88 455h-246zM547 590h348l66 336h-349z" />
<glyph unicode="$" horiz-adv-x="1360" d="M133 147l76 117q62 -41 120.5 -66.5t116 -39.5t115 -19.5t119.5 -5.5q102 0 174.5 18.5t118 55t67 91.5t21.5 128q0 77 -26 126t-75.5 81t-122 52.5t-165.5 39.5q-93 18 -178.5 41t-151 65.5t-104.5 112t-39 180.5q0 205 117 300.5t366 95.5q134 0 250.5 -28.5 t197.5 -84.5l-75 -121q-34 23 -77 40.5t-91.5 29.5t-100.5 18t-104 6q-94 0 -157.5 -16t-102.5 -47.5t-55.5 -78.5t-16.5 -108q0 -69 26 -113.5t74.5 -74t118.5 -49t158 -37.5q97 -21 184.5 -46.5t154 -71t105.5 -118t39 -186.5q0 -106 -31 -187t-96 -136t-164.5 -83 t-236.5 -28q-71 0 -140.5 6t-138.5 22.5t-136.5 45t-133.5 73.5zM616 59l7 15v1362l-7 16v199h144v-199l-6 -12v-1362l6 -21v-250h-144v252z" />
<glyph unicode="%" horiz-adv-x="2271" d="M90 1061q0 105 22.5 193.5t72 152t127 99.5t188.5 36q108 0 185 -36t125.5 -99.5t71.5 -152t23 -193.5q0 -106 -23 -194t-71.5 -151.5t-125.5 -98.5t-185 -35q-111 0 -188.5 35t-127 98.5t-72 151.5t-22.5 194zM233 1061q0 -75 13 -139.5t43.5 -112t82 -74t128.5 -26.5 q75 0 125.5 26.5t81.5 74t44 112t13 139.5t-13 139.5t-44 111t-81.5 73t-125.5 26.5q-76 0 -127.5 -26t-82.5 -72.5t-44 -111t-13 -140.5zM637 0l846 1520h147l-846 -1520h-147zM1366 459q0 105 22.5 193.5t71.5 152t126 99.5t186 36t186 -36t126 -99.5t72 -152t23 -193.5 q0 -106 -23 -194t-72 -151.5t-126 -98.5t-186 -35t-186 35t-126 98.5t-71.5 151.5t-22.5 194zM1507 459q0 -75 13 -140t44 -112t82 -74t126 -27q76 0 126.5 27t81 74t43.5 112t13 140q0 74 -13 138t-43.5 111t-81 74t-126.5 27q-75 0 -126 -26.5t-82 -73.5t-44 -111 t-13 -139z" />
<glyph unicode="&#x26;" horiz-adv-x="1614" d="M96 403q0 92 30.5 164.5t81 130t115.5 102.5t134 83l63 14q59 34 114 69t97 74t67 83.5t25 99.5q0 92 -35.5 137t-125.5 45t-132.5 -44.5t-42.5 -137.5q0 -89 31.5 -194.5t87 -213t130 -210t161.5 -185.5q104 -99 187 -155t151.5 -83.5t125 -34t107.5 -6.5h23v-141h-27 q-78 0 -152.5 10t-154.5 44t-171.5 99t-205.5 175q-96 94 -177 206t-140 230.5t-92 236t-33 222.5q0 83 22.5 143t64.5 99t102 58t135 19q151 0 226 -76t75 -243q0 -85 -34 -149t-89 -115.5t-124.5 -93.5t-140.5 -83l-67 -20q-52 -32 -99 -68.5t-83 -80t-57 -94.5t-21 -113 q0 -69 13 -123.5t51.5 -92.5t107.5 -58.5t180 -20.5q149 0 251 48t174.5 144t124.5 240t101 336l135 -33q-36 -141 -74.5 -260t-85.5 -215.5t-105.5 -169.5t-134 -122t-170.5 -74t-216 -25q-140 0 -236 25.5t-155.5 77.5t-86 131.5t-26.5 188.5z" />
<glyph unicode="'" horiz-adv-x="563" d="M201 1520h159l-12 -588h-133z" />
<glyph unicode="(" horiz-adv-x="977" d="M233 614q0 117 19 225t51 205.5t75.5 183t92 158t100.5 130t101 98.5l110 -84q-67 -62 -136.5 -149t-126 -201t-92.5 -255.5t-36 -310.5q0 -170 37 -311.5t94.5 -254.5t126.5 -198.5t133 -142.5l-110 -84q-49 41 -101 96.5t-100.5 125.5t-92 153.5t-75.5 179.5t-51 205.5 t-19 230.5z" />
<glyph unicode=")" horiz-adv-x="977" d="M195 -293q66 61 135 147t125.5 198.5t92.5 252t36 309.5q0 169 -37 312t-94 258.5t-125.5 202.5t-132.5 143l108 84q74 -62 151.5 -157t141.5 -221.5t104.5 -282.5t40.5 -339q0 -175 -40.5 -328.5t-104.5 -280.5t-141.5 -224t-151.5 -158z" />
<glyph unicode="*" horiz-adv-x="1178" d="M139 848l348 184l-348 189l64 112l338 -209l-15 396h125l-14 -396l338 209l63 -112l-348 -189l348 -184l-63 -113l-338 207l14 -393h-125l15 391l-338 -205z" />
<glyph unicode="+" horiz-adv-x="1425" d="M217 649v148h418v415h153v-415h418v-148h-418v-418h-153v418h-418z" />
<glyph unicode="," horiz-adv-x="489" d="M131 -160q34 18 55.5 34t34.5 33.5t18 39.5t5 53h-103v227h205v-172q0 -64 -7 -108.5t-26 -78.5t-52 -60t-85 -52z" />
<glyph unicode="-" horiz-adv-x="926" d="M106 557v145h711v-145h-711z" />
<glyph unicode="." horiz-adv-x="489" d="M141 0v227h205v-227h-205z" />
<glyph unicode="/" horiz-adv-x="1012" d="M0 0l850 1518h162l-850 -1518h-162z" />
<glyph unicode="0" horiz-adv-x="1493" d="M164 760q0 173 24 316.5t88.5 247t178.5 161t293 57.5q118 0 206.5 -26t153.5 -74.5t107.5 -117.5t67.5 -156t35.5 -190t10.5 -218q0 -114 -10.5 -216.5t-35.5 -189.5t-67.5 -157t-107.5 -118.5t-153.5 -75t-206.5 -26.5q-119 0 -209 26.5t-155 75t-107.5 118.5 t-67.5 157t-35 189.5t-10 216.5zM324 760q0 -136 15 -253t60 -202.5t128.5 -134.5t220.5 -49q90 0 157 22t114 63t76.5 98.5t46.5 128.5t23 153.5t6 173.5q0 137 -15 253.5t-60.5 201t-128.5 132.5t-219 48q-137 0 -220.5 -48t-128.5 -132.5t-60 -201t-15 -253.5z" />
<glyph unicode="1" horiz-adv-x="764" d="M76 1370v148h442v-1518h-153v1370h-289z" />
<glyph unicode="2" horiz-adv-x="1206" d="M78 0v131l510 512q84 84 144 148.5t99 122.5t57.5 116t18.5 129q0 62 -17.5 107.5t-56.5 75t-100.5 43.5t-148.5 14q-128 0 -233.5 -26t-176.5 -64l-70 127q47 24 98.5 44t111.5 33.5t129.5 21t152.5 7.5q116 0 203 -21t145.5 -66t87.5 -115t29 -169q0 -86 -20.5 -157.5 t-63 -141.5t-107.5 -143.5t-155 -163.5l-426 -428h796v-137h-1007z" />
<glyph unicode="3" horiz-adv-x="1251" d="M45 117l78 123q61 -33 118.5 -56.5t114 -39t114.5 -22.5t120 -7q97 0 167.5 16t116.5 54t67.5 101t21.5 156q0 78 -16.5 137.5t-61.5 99t-125 59.5t-207 20h-209v139h205q105 0 176 14.5t114.5 46.5t62 82.5t18.5 122.5q0 67 -18.5 112.5t-58.5 73.5t-103 40t-152 12 q-52 0 -107.5 -6.5t-110 -20t-106 -33.5t-96.5 -47l-84 119q55 34 117 58t128 40t134 23.5t135 7.5q119 0 207.5 -18.5t147.5 -60.5t88.5 -109.5t29.5 -165.5q0 -76 -14.5 -136t-40 -103.5t-61 -71t-78.5 -39.5q127 -28 182 -128.5t55 -277.5q0 -131 -34 -219t-100 -141 t-162.5 -75t-221.5 -22q-79 0 -149.5 7.5t-137.5 24.5t-132 44t-132 66z" />
<glyph unicode="4" horiz-adv-x="1366" d="M109 383v127l679 1008h170l-677 -1000h1013v-135h-1185zM864 0v492l33 528h115v-1020h-148z" />
<glyph unicode="5" horiz-adv-x="1303" d="M117 117l80 125q46 -25 94 -48t102 -40.5t114 -28t130 -10.5q86 0 161 15t131 56t88 112.5t32 184.5q0 111 -29 183t-80.5 114t-123.5 59t-157 17q-59 0 -107.5 -4.5t-91 -14t-81.5 -24t-78 -33.5l-131 39l39 699h887v-142h-748l-24 -450q52 28 146 49.5t222 21.5 q109 0 202.5 -22.5t162.5 -79.5t108 -156t39 -252q0 -156 -42.5 -255.5t-117.5 -156t-178.5 -77.5t-224.5 -21q-87 0 -161 11t-138 30.5t-119.5 44.5t-105.5 54z" />
<glyph unicode="6" horiz-adv-x="1411" d="M156 614q0 160 16.5 289t55.5 229.5t103 173t159.5 120t225.5 70t300 22.5h63v-142h-67q-138 0 -241 -17t-178 -49t-124.5 -77t-81 -101.5t-48 -122.5t-24.5 -139q62 79 180.5 114.5t288.5 35.5q145 0 241.5 -36t154.5 -102.5t82 -162t24 -215.5q0 -122 -27 -220 t-90 -166t-167.5 -104.5t-258.5 -36.5q-147 0 -257.5 34.5t-183.5 110.5t-109.5 197.5t-36.5 294.5zM313 547q0 -123 30 -206t85.5 -134t135.5 -72.5t181 -21.5q115 0 190 27.5t119 77.5t61.5 121.5t17.5 160.5q0 88 -18.5 159.5t-63.5 122t-119.5 78t-186.5 27.5 q-94 0 -173.5 -21t-137 -63t-89.5 -106t-32 -150z" />
<glyph unicode="7" horiz-adv-x="1094" d="M45 1376v142h1016v-125l-612 -1393h-162l606 1376h-848z" />
<glyph unicode="8" horiz-adv-x="1423" d="M139 424q0 160 64 267.5t190 142.5q-52 16 -90.5 47t-63.5 74.5t-37 97t-12 114.5q0 85 25.5 154t86 118t161 76t250.5 27t250 -27t160 -76t85 -118t25 -154q0 -61 -12 -115.5t-37 -98t-63.5 -74.5t-90.5 -45q67 -19 115.5 -55.5t80 -89t46 -119.5t14.5 -146 q0 -105 -33 -189t-102.5 -142t-178 -89t-259.5 -31q-154 0 -263 31t-178 89t-101 142t-32 189zM295 434q0 -163 100 -244t318 -81q214 0 314.5 81t100.5 244t-100.5 245.5t-314.5 82.5q-218 0 -318 -82.5t-100 -245.5zM340 1151q0 -63 19.5 -111t64 -81t115.5 -49.5 t174 -16.5q102 0 172.5 16.5t114.5 49.5t63.5 81t19.5 111t-19.5 111t-63.5 81t-114.5 49.5t-172.5 16.5q-103 0 -174 -16.5t-115.5 -49.5t-64 -81t-19.5 -111z" />
<glyph unicode="9" horiz-adv-x="1411" d="M131 1014q0 121 27 218.5t90 166.5t167 106t259 37q147 0 257 -34.5t183.5 -110.5t110.5 -197t37 -295q0 -160 -16.5 -289t-55.5 -229.5t-103.5 -173.5t-160 -120.5t-225.5 -70t-300 -22.5h-65v137h67q139 0 243 17.5t179 50.5t124.5 79t80 102.5t46.5 122.5t24 138 q-62 -78 -179.5 -113.5t-287.5 -35.5q-145 0 -241.5 36.5t-154.5 104t-82 162.5t-24 213zM283 1014q0 -89 18.5 -160.5t63.5 -121.5t119.5 -77.5t185.5 -27.5q95 0 174.5 21t136.5 63.5t89 106t32 149.5q0 123 -29.5 206t-85 133.5t-134.5 72.5t-179 22q-115 0 -190.5 -27.5 t-120 -78t-62.5 -122t-18 -159.5z" />
<glyph unicode=":" horiz-adv-x="530" d="M162 0v223h205v-223h-205zM162 907v223h205v-223h-205z" />
<glyph unicode=";" horiz-adv-x="530" d="M152 -160q34 18 55.5 34t34 33.5t17.5 39.5t5 53h-102v223h205v-168q0 -64 -7 -108.5t-26 -78.5t-52 -60t-85 -52zM162 907v223h205v-223h-205z" />
<glyph unicode="&#x3c;" horiz-adv-x="1425" d="M213 649v119l917 459v-146l-759 -372l759 -373v-150z" />
<glyph unicode="=" horiz-adv-x="1425" d="M229 428v145h967v-145h-967zM229 870v144h967v-144h-967z" />
<glyph unicode="&#x3e;" horiz-adv-x="1425" d="M295 186v150l760 371l-760 372v148l917 -461v-119z" />
<glyph unicode="?" horiz-adv-x="1360" d="M174 1425q50 28 112 49.5t130 36.5t139.5 23t140.5 8q145 0 240.5 -23t151.5 -68t79 -112.5t23 -156.5q0 -77 -19 -133t-55.5 -100t-89.5 -81t-121 -75q-69 -39 -110 -72t-61 -74t-23 -98.5t4 -145.5h-154q-10 101 -5 172t30 124.5t73.5 96t126.5 87.5q71 40 118 70.5 t75.5 61t40.5 67t12 87.5q0 52 -12 94.5t-49 72t-105 45.5t-180 16q-122 0 -236 -28.5t-208 -78.5zM535 0v209h204v-209h-204z" />
<glyph unicode="@" horiz-adv-x="2222" d="M186 598q0 469 234 707.5t690 238.5q460 0 695 -238.5t235 -707.5q0 -149 -15 -250.5t-54 -163.5t-105 -89t-168 -27q-86 0 -137 16t-78 41.5t-36 55.5t-11 59q-25 -42 -60 -73t-84 -51.5t-113 -30t-147 -9.5q-120 0 -204 37.5t-136.5 107t-76 168t-23.5 219.5 q0 120 24.5 218t77.5 167.5t138 107.5t206 38q81 0 143 -9t108 -27.5t77.5 -48t52.5 -71.5l33 147l100 -6v-780q0 -34 5 -66.5t23 -58t52 -41.5t92 -16q69 0 111.5 23t65.5 74.5t30.5 134.5t7.5 204q0 419 -204 633.5t-625 214.5q-413 0 -618 -214.5t-205 -633.5 q0 -205 51 -361.5t154.5 -262.5t261 -160t370.5 -54q172 0 315.5 33.5t252.5 85.5l43 -86q-119 -60 -271.5 -95.5t-339.5 -35.5q-240 0 -416.5 59.5t-292.5 177.5t-172.5 293t-56.5 406zM735 608q0 -95 17.5 -170.5t56 -128t100 -80.5t150.5 -28q87 0 153 20.5t110.5 68 t66.5 125.5t22 193q0 114 -21.5 190t-65.5 121.5t-110 65t-155 19.5t-150.5 -27t-100 -78t-56 -124.5t-17.5 -166.5z" />
<glyph unicode="A" horiz-adv-x="1481" d="M51 0l608 1528h162l609 -1528h-164l-140 350h-778l-137 -350h-160zM403 498h666l-332 835z" />
<glyph unicode="B" horiz-adv-x="1440" d="M178 0v1518h660q250 0 366.5 -92.5t116.5 -276.5q0 -65 -13.5 -122t-40 -102.5t-65.5 -78t-90 -47.5q125 -31 185.5 -124.5t60.5 -254.5q0 -115 -34 -195t-101.5 -130t-168 -72.5t-233.5 -22.5h-643zM336 145h502q92 0 159.5 16.5t111.5 51.5t65.5 89.5t21.5 131.5 q0 145 -87 212t-275 67h-498v-568zM336 860h506q94 0 155 20.5t96.5 56.5t49.5 85t14 106q0 59 -17.5 104.5t-55.5 76t-98 46t-144 15.5h-506v-510z" />
<glyph unicode="C" horiz-adv-x="1477" d="M90 760q0 199 50.5 346t147 244t237.5 144.5t321 47.5q162 0 296 -47t234 -143l-114 -115q-82 74 -187.5 113t-230.5 39q-293 0 -442.5 -158t-149.5 -473q0 -155 35.5 -273t109 -197t185.5 -119t264 -40q85 0 150 12.5t115.5 34t89.5 49.5t73 60l112 -109 q-39 -38 -88 -74t-114.5 -64t-150 -44.5t-195.5 -16.5q-191 0 -332 50t-233.5 148.5t-137.5 245t-45 339.5z" />
<glyph unicode="D" horiz-adv-x="1540" d="M178 0v1518h496q213 0 361.5 -36t241 -123t134 -233t41.5 -366q0 -215 -45.5 -361t-142.5 -234.5t-250 -126.5t-367 -38h-469zM340 147h313q180 0 302 32.5t196.5 105t106.5 189.5t32 286q0 115 -12 204.5t-40 156.5t-74.5 114t-114.5 76t-160.5 42t-212.5 13h-336v-1219 z" />
<glyph unicode="E" horiz-adv-x="1309" d="M178 0v1518h1004v-154h-842v-502h821v-151h-821v-564h850v-147h-1012z" />
<glyph unicode="F" horiz-adv-x="1229" d="M178 0v1518h977v-154h-815v-514h797v-152h-797v-698h-162z" />
<glyph unicode="G" horiz-adv-x="1591" d="M90 760q0 205 49.5 353t145.5 243t236.5 140.5t322.5 45.5q109 0 195 -16t153.5 -42.5t117.5 -60.5t87 -69l-115 -117q-36 31 -78.5 59t-95.5 48.5t-118 32.5t-146 12q-296 0 -445 -154.5t-149 -476.5q0 -161 32.5 -281t103 -199t183 -118t273.5 -39q153 0 249.5 32.5 t151.5 96.5t75.5 159.5t20.5 221.5v49h-512v149h672v-172q0 -103 -10.5 -193t-37.5 -166t-74.5 -135.5t-121 -100.5t-177 -63t-242.5 -22q-202 0 -344 49.5t-231 147.5t-130 245t-41 341z" />
<glyph unicode="H" horiz-adv-x="1591" d="M178 0v1518h162v-648h911v648h160v-1518h-160v713h-911v-713h-162z" />
<glyph unicode="I" horiz-adv-x="547" d="M195 0v1518h157v-1518h-157z" />
<glyph unicode="J" horiz-adv-x="819" d="M61 0v147h138q81 0 136.5 17t90.5 52t50.5 89.5t15.5 128.5v1084h157v-1090q0 -117 -27.5 -198.5t-82 -133t-135.5 -75t-189 -23.5h-46h-36q-17 0 -33.5 0.5t-38.5 1.5z" />
<glyph unicode="K" horiz-adv-x="1442" d="M178 0v1518h158v-1518h-158zM225 559l879 959h186l-979 -1072zM598 866l125 88l641 -954h-182z" />
<glyph unicode="L" horiz-adv-x="1202" d="M178 0v1518h162v-1371h807v-147h-969z" />
<glyph unicode="M" horiz-adv-x="1872" d="M178 0v1518h209l549 -1295l553 1295h205v-1518h-158v1249l-535 -1249h-135l-534 1249v-1249h-154z" />
<glyph unicode="N" horiz-adv-x="1595" d="M178 0v1518h176l908 -1252v1252h155v-1518h-147l-936 1288v-1288h-156z" />
<glyph unicode="O" horiz-adv-x="1708" d="M90 760q0 202 51 349.5t148.5 243.5t239 142.5t323.5 46.5q183 0 325.5 -46.5t240.5 -142.5t149 -243.5t51 -349.5q0 -204 -51 -352t-149 -244t-240.5 -142.5t-325.5 -46.5q-182 0 -323.5 46.5t-239 142.5t-148.5 244t-51 352zM252 758q0 -155 36 -273t109.5 -198 t186.5 -121t268 -41t269 41t188.5 121t110.5 198t36 273q0 153 -36 271t-110.5 198t-188.5 121t-269 41t-268 -41t-186.5 -121t-109.5 -198t-36 -271z" />
<glyph unicode="P" horiz-adv-x="1446" d="M178 0v1518h666q264 0 388 -110t124 -343q0 -118 -30.5 -208t-93.5 -150.5t-160 -91.5t-230 -31h-506v-584h-158zM336 733h510q84 0 149.5 17t110 56t67.5 101t23 152q0 89 -22.5 148.5t-67.5 95t-111.5 50.5t-154.5 15h-504v-635z" />
<glyph unicode="Q" horiz-adv-x="1708" d="M90 760q0 202 48 349.5t144 243.5t238.5 142.5t331.5 46.5q190 0 333.5 -46.5t239.5 -142.5t144.5 -243.5t48.5 -349.5q0 -204 -48.5 -350t-144.5 -240.5t-239.5 -139t-333.5 -44.5q-189 0 -331.5 44.5t-238.5 139t-144 240.5t-48 350zM252 758q0 -155 33.5 -273 t106 -198t186 -121t274.5 -41t275.5 41t187.5 121t107 198t34 273q0 153 -34 271t-107 198t-187.5 121t-275.5 41t-274.5 -41t-186 -121t-106 -198t-33.5 -271zM729 18l158 -8q-3 -39 -3 -71q0 -26 2 -47q5 -47 28.5 -74.5t69 -38t120.5 -10.5h158v-140q-6 0 -27 -0.5 t-45.5 -0.5t-48.5 -0.5t-37 -0.5q-119 0 -195.5 20t-119.5 66t-56 121q-8 44 -8 100q0 39 4 84z" />
<glyph unicode="R" horiz-adv-x="1470" d="M178 0v1518h656q264 0 388 -109.5t124 -335.5q0 -224 -126 -339.5t-389 -115.5h-495v-618h-158zM336 766h500q81 0 145.5 14t109.5 48t69 92t24 147q0 88 -23.5 146.5t-69 92.5t-111.5 48t-151 14h-493v-602zM741 700h172l410 -700h-172z" />
<glyph unicode="S" horiz-adv-x="1440" d="M84 154l82 122q68 -43 136 -72t135.5 -47t135 -26t136.5 -8q117 0 202.5 17t141 53t82 92.5t26.5 134.5q0 81 -32.5 130t-91.5 79.5t-142.5 49t-185.5 36.5q-82 14 -154.5 29.5t-133.5 36.5t-109.5 50t-82 71t-51.5 99t-18 134q0 109 35 186.5t104 126.5t172 71.5 t238 22.5q178 0 307.5 -37t220.5 -98l-86 -131q-41 27 -91 49t-106.5 37.5t-118.5 24t-126 8.5q-102 0 -176 -14.5t-121.5 -46t-70 -80t-22.5 -115.5q0 -72 29 -118t84 -75.5t134.5 -48.5t181.5 -37q124 -22 229 -47t181 -70t118.5 -120t42.5 -197q0 -226 -148 -336 t-458 -110q-173 0 -329 39.5t-300 134.5z" />
<glyph unicode="T" horiz-adv-x="1409" d="M55 1364v154h1301v-154h-570v-1364h-161v1364h-570z" />
<glyph unicode="U" horiz-adv-x="1593" d="M168 547v971h162v-953q0 -97 19 -177.5t70 -139t141.5 -91t234.5 -32.5q145 0 237.5 32t145 90t72.5 139t20 179v953h155v-971q0 -75 -9.5 -147t-35 -135.5t-69.5 -116.5t-114 -91.5t-169 -60t-233 -21.5q-135 0 -233.5 21.5t-168.5 60t-113.5 92t-68.5 117t-34 135 t-9 146.5z" />
<glyph unicode="V" horiz-adv-x="1481" d="M55 1518h166l522 -1325l519 1325h165l-606 -1528h-162z" />
<glyph unicode="W" horiz-adv-x="2218" d="M72 1518h166l399 -1256l407 1256h140l405 -1256l402 1256h155l-487 -1528h-139l-410 1263l-408 -1263h-141z" />
<glyph unicode="X" horiz-adv-x="1452" d="M82 0l567 811l31 27l467 680h178l-520 -740l-35 -30l-512 -748h-176zM131 1518h176l1065 -1518h-180z" />
<glyph unicode="Y" horiz-adv-x="1434" d="M27 1518h176l516 -783l520 783h166l-623 -947h-133zM637 0v670h160v-670h-160z" />
<glyph unicode="Z" horiz-adv-x="1362" d="M92 0v129l950 1235h-915v154h1114v-140l-946 -1231h969v-147h-1172z" />
<glyph unicode="[" horiz-adv-x="946" d="M252 -338v1927h487v-141h-329v-1649h335v-137h-493z" />
<glyph unicode="\" horiz-adv-x="1012" d="M0 1518h162l850 -1518h-162z" />
<glyph unicode="]" horiz-adv-x="946" d="M201 1448v141h491v-1927h-487v137h332v1649h-336z" />
<glyph unicode="^" horiz-adv-x="1208" d="M205 1232l311 320h174l311 -320h-155l-246 219l-242 -219h-153z" />
<glyph unicode="_" horiz-adv-x="928" d="M-76 -121h1080v-127h-1080v127z" />
<glyph unicode="`" horiz-adv-x="1208" d="M262 1569h191l309 -320h-148z" />
<glyph unicode="a" d="M90 315q0 121 37 201.5t124.5 128.5t232.5 68t360 20h88v-141h-80q-123 0 -216 -5t-161 -16.5t-113.5 -31.5t-72.5 -49.5t-38 -70t-11 -93.5q0 -51 13 -90.5t44 -67t83 -41.5t130 -14q107 0 183 23.5t124.5 72t71 123.5t22.5 178v190q0 82 -9 141t-40.5 97t-92 56 t-163.5 18q-54 0 -103 -8.5t-92.5 -23t-79.5 -32t-63 -35.5l-82 121q28 19 72.5 40.5t101 40t122 30.5t136.5 12q143 0 230 -26t134.5 -81t63 -142t15.5 -208v-426q0 -45 3 -72t14.5 -41.5t35 -19t64.5 -4.5v-135q-8 -3 -23.5 -3.5t-38.5 -0.5q-49 0 -81.5 8t-53 25 t-31.5 43.5t-18 64.5q-26 -40 -63 -69.5t-90.5 -49.5t-125 -30t-166.5 -10q-119 0 -196 25.5t-121.5 70.5t-62 106.5t-17.5 132.5z" />
<glyph unicode="b" horiz-adv-x="1325" d="M156 4v1585h155v-588q24 41 60.5 70.5t89 48.5t121.5 28t159 9q141 0 234.5 -42.5t149 -119.5t78 -186t22.5 -242t-23.5 -241t-80 -185t-151 -119t-237.5 -42q-94 0 -164 8.5t-122 27.5t-88.5 47.5t-63.5 69.5l-29 -139zM311 561q0 -125 22 -210t70 -136.5t124 -73.5 t184 -22q104 0 173 30.5t109.5 87.5t57 139t16.5 185q0 105 -16 188t-56.5 141t-109 89t-174.5 31q-107 0 -183 -23t-124 -75.5t-70.5 -138.5t-22.5 -212z" />
<glyph unicode="c" horiz-adv-x="1153" d="M100 567q0 135 25 244t87.5 186t167.5 118.5t265 41.5q76 0 138 -13t111.5 -35t88.5 -51.5t70 -62.5l-113 -106q-21 21 -48 42t-63 38t-81.5 28t-102.5 11q-111 0 -186 -29.5t-120 -86.5t-64 -140t-19 -189q0 -104 18.5 -186.5t63 -139.5t119.5 -87.5t188 -30.5 q48 0 89.5 7.5t78 22.5t70 37.5t65.5 51.5l105 -99q-42 -38 -85.5 -68t-92.5 -50t-106.5 -30.5t-127.5 -10.5q-158 0 -262.5 41.5t-166.5 118t-87 185t-25 242.5z" />
<glyph unicode="d" horiz-adv-x="1325" d="M100 571q0 132 23.5 240t79.5 184.5t150.5 118t236.5 41.5q92 0 161.5 -9t120.5 -27.5t85 -47t57 -67.5v585h155v-1583l-120 -10l-19 145q-27 -42 -64.5 -72.5t-90.5 -50t-124 -29t-165 -9.5q-141 0 -235 42.5t-149.5 119.5t-78.5 186t-23 243zM258 571q0 -104 16 -187 t56.5 -141t109.5 -89t174 -31q107 0 183 23t124 75.5t70.5 138t22.5 211.5q0 124 -21.5 208.5t-69.5 135.5t-124 73t-185 22q-105 0 -174 -30t-109.5 -86.5t-56.5 -138t-16 -184.5z" />
<glyph unicode="e" horiz-adv-x="1214" d="M100 567q0 123 22.5 230.5t82 187.5t164 126t268.5 46q114 0 193 -24.5t131 -68.5t81 -104.5t42.5 -132t15.5 -151.5q2 -57 2 -115v-47h-934l2 141h784q-3 50 -7 96.5t-15 87t-31 73.5t-55 56.5t-87 36.5t-126 13q-122 0 -197 -33.5t-116 -94t-55.5 -144t-14.5 -183.5 q0 -98 14 -180.5t56.5 -142.5t119.5 -93.5t203 -33.5q70 0 123 8.5t95.5 24t77.5 36.5t69 45l84 -108q-42 -32 -88.5 -58.5t-100.5 -45t-118 -28.5t-142 -10q-114 0 -198.5 21t-144.5 59t-99 91.5t-61.5 119t-31 141.5t-8.5 158z" />
<glyph unicode="f" horiz-adv-x="786" d="M63 989v141h672v-141h-672zM276 0v1235q0 78 15 143.5t53 112t103 72.5t165 26h123v-137h-106q-60 0 -98.5 -16.5t-61 -45.5t-31 -68.5t-8.5 -86.5v-1235h-154z" />
<glyph unicode="g" horiz-adv-x="1223" d="M61 -84q0 49 10 94t35.5 82.5t69 64.5t109.5 40q-35 15 -53.5 50.5t-18.5 82.5q0 57 26 107.5t66 82.5l111 -65q-25 -22 -41.5 -50t-16.5 -57q0 -27 11 -44t38 -26t73 -12.5t116 -3.5q153 0 257.5 -12.5t168 -45t91.5 -88.5t28 -143t-29 -151t-94.5 -106t-172 -62.5 t-261.5 -20.5q-136 0 -235 12.5t-163 44t-94.5 86.5t-30.5 140zM127 778q0 95 27 166t83 118.5t143.5 71t209.5 23.5q66 0 129.5 -7.5t111.5 -23.5l23 -34q50 -19 88 -46t63.5 -64.5t38.5 -88t13 -115.5q0 -188 -113 -276t-354 -88q-120 0 -207.5 21.5t-144 66.5t-84 113.5 t-27.5 162.5zM217 -61q0 -52 22 -86t67.5 -54.5t115.5 -28.5t166 -8q120 0 197 13t121 38.5t60.5 63t16.5 86.5q0 51 -20 83t-66.5 50t-122 24.5t-186.5 6.5q-122 0 -195.5 -15t-112.5 -40.5t-51 -60t-12 -72.5zM279 778q0 -60 17 -103.5t54.5 -71t96.5 -41t143 -13.5 t143.5 13.5t97 41t55 71t17.5 103.5q0 122 -79 178t-234 56q-84 0 -143 -14t-96.5 -42.5t-54.5 -72.5t-17 -105zM606 1141l488 57v-129h-326z" />
<glyph unicode="h" d="M156 0v1589h155v-571q16 28 45.5 53.5t77 44.5t116 30t163.5 11q136 0 217 -33.5t123 -95t54.5 -147.5t12.5 -191v-690h-155v664q0 75 -7.5 137.5t-37 107.5t-89 70t-163.5 25q-113 0 -183 -27.5t-108.5 -77t-52 -117t-13.5 -147.5v-635h-155z" />
<glyph unicode="i" horiz-adv-x="487" d="M166 0v1130h153v-1130h-153zM166 1280v221h156v-221h-156z" />
<glyph unicode="j" horiz-adv-x="487" d="M4 -213h12q48 1 77.5 9.5t45.5 28.5t21.5 53.5t5.5 84.5v1167h153v-1167q0 -86 -11.5 -144.5t-43.5 -94t-88 -51t-145 -15.5h-27v129zM166 1280v221h156v-221h-156z" />
<glyph unicode="k" horiz-adv-x="1110" d="M156 0v1589h153v-1589h-153zM221 408l633 722h172l-457 -528l-24 -22l-266 -301zM463 621l129 73l477 -694h-172z" />
<glyph unicode="l" horiz-adv-x="598" d="M166 270v1319h153v-1302q0 -42 4 -70.5t18 -46t40 -25.5t70 -8h49v-135q-13 -2 -40 -3t-59 -1q-69 0 -114.5 15.5t-72 48.5t-37.5 84.5t-11 123.5z" />
<glyph unicode="m" horiz-adv-x="2034" d="M156 0v1122l123 8l14 -118q16 29 46 55.5t78.5 46.5t118 31.5t164.5 11.5q94 0 156.5 -11.5t102 -31.5t60.5 -48t32 -62q19 33 53.5 61t87.5 48.5t126 32t171 11.5q136 0 215.5 -33.5t119.5 -95t51 -147.5t11 -191v-690h-155v664q0 75 -6 137.5t-33.5 107.5t-85.5 70 t-162 25q-113 0 -181 -27.5t-105 -77t-48.5 -117t-11.5 -147.5v-635h-154v664q0 75 -5.5 137.5t-33.5 107.5t-85.5 70t-162.5 25q-113 0 -181 -27.5t-105 -77t-48.5 -117t-11.5 -147.5v-635h-155z" />
<glyph unicode="n" d="M156 0v1122l123 8l14 -118q18 29 49.5 55.5t81 46.5t120.5 31.5t169 11.5q136 0 217 -33.5t123 -95t54.5 -147.5t12.5 -191v-690h-155v664q0 75 -7.5 137.5t-37 107.5t-89 70t-163.5 25q-113 0 -183 -27.5t-108.5 -77t-52 -117t-13.5 -147.5v-635h-155z" />
<glyph unicode="o" horiz-adv-x="1292" d="M100 567q0 146 30 256.5t95.5 184.5t169 111.5t250.5 37.5t250.5 -37.5t169.5 -111.5t96.5 -184.5t30.5 -256.5t-30.5 -256.5t-96.5 -184.5t-169.5 -111.5t-250.5 -37.5t-250.5 37.5t-169 111.5t-95.5 184.5t-30 256.5zM256 563q0 -108 20.5 -191t67 -139.5t120.5 -85 t181 -28.5t181 28.5t120.5 85t67 139.5t20.5 191q0 109 -20.5 192.5t-67 140t-120.5 85.5t-181 29t-181 -29t-120.5 -85.5t-67 -140t-20.5 -192.5z" />
<glyph unicode="p" horiz-adv-x="1325" d="M156 -338v1460l123 8l14 -135q23 41 59.5 71.5t90.5 50.5t127.5 30t170.5 10q141 0 234.5 -42t149 -119t78 -186t22.5 -243q0 -132 -23 -240t-79 -184.5t-150.5 -118.5t-237.5 -42q-92 0 -161.5 9t-120.5 27.5t-85.5 47t-56.5 67.5v-471h-155zM311 563q0 -125 22 -209.5 t70 -135.5t124 -73t184 -22q104 0 173 30t109.5 86.5t57 138t16.5 185.5t-16 187t-56.5 140.5t-109 88.5t-174.5 31q-107 0 -183 -22.5t-124 -75t-70.5 -138t-22.5 -211.5z" />
<glyph unicode="q" horiz-adv-x="1325" d="M100 569q0 133 23.5 241.5t79.5 185.5t150.5 119t236.5 42q94 0 165 -8.5t123.5 -27t89 -47t62.5 -68.5l29 143l110 -10v-1477h-155v469q-29 -41 -66.5 -69.5t-88 -46.5t-117.5 -26.5t-156 -8.5q-141 0 -235 42t-149.5 119.5t-78.5 186t-23 241.5zM258 569 q0 -104 16 -186.5t56.5 -140t109.5 -88.5t174 -31q107 0 183 23t124 75.5t70.5 137.5t22.5 210t-21.5 209.5t-69.5 136t-124 73.5t-185 22q-105 0 -174 -30t-109.5 -86.5t-56.5 -138.5t-16 -186z" />
<glyph unicode="r" horiz-adv-x="735" d="M156 0v1122l123 8l16 -151q16 33 50 63t83.5 52.5t114.5 36t143 14.5v-156q-104 0 -175.5 -28t-115.5 -78.5t-64 -120t-20 -152.5v-610h-155z" />
<glyph unicode="s" horiz-adv-x="1069" d="M61 106l82 121q50 -32 101.5 -53.5t102.5 -34.5t100 -18.5t94 -5.5q76 0 132.5 8.5t93.5 31t55 60.5t18 98q0 48 -16 78t-52 51t-93 35.5t-138 30.5q-98 19 -177 40.5t-134.5 57.5t-85 93t-29.5 149q0 73 22.5 130t73.5 97t132 61t198 21q128 0 231.5 -26t181.5 -72 l-73 -127q-65 35 -150 58.5t-188 23.5q-80 0 -133 -11.5t-84.5 -33t-44.5 -52.5t-13 -69q0 -47 16 -78t50 -52t87 -35.5t128 -29.5q103 -21 184.5 -41.5t138.5 -55.5t87 -90.5t30 -146.5q0 -97 -27.5 -162t-83.5 -104.5t-142 -56t-204 -16.5q-56 0 -115 5.5t-119 20 t-119.5 38.5t-117.5 62z" />
<glyph unicode="t" horiz-adv-x="831" d="M63 989v141h668v-141h-668zM266 291v786l31 393l123 23v-1184q0 -39 4.5 -71t22 -54.5t52 -34.5t93.5 -12h139v-137q-6 -1 -29 -1.5t-50 -0.5h-52h-33q-95 0 -154 19t-91.5 56t-44 91.5t-11.5 126.5z" />
<glyph unicode="u" horiz-adv-x="1257" d="M150 465v665h153v-669q0 -47 1.5 -90t10.5 -81t29 -69t56.5 -53.5t93 -34.5t139.5 -12q82 0 138 12t91.5 34.5t55 54t28 70.5t9.5 83.5t1 93.5v661h152v-659q0 -77 -5 -143t-21.5 -120.5t-47.5 -97t-84 -71.5t-130.5 -44t-186.5 -15q-110 0 -188 15t-132 44t-86 71 t-49 95.5t-22.5 119t-5.5 140.5z" />
<glyph unicode="v" horiz-adv-x="1112" d="M23 1130h163l371 -956l373 956h160l-451 -1140h-166z" />
<glyph unicode="w" horiz-adv-x="1794" d="M31 1130h162l325 -915l305 915h154l303 -913l326 913h157l-407 -1140h-154l-305 907l-305 -907h-154z" />
<glyph unicode="x" horiz-adv-x="1108" d="M41 0l434 602l39 35l350 493h168l-401 -555l-33 -24l-389 -551h-168zM78 1130h170l819 -1130h-174z" />
<glyph unicode="y" horiz-adv-x="1085" d="M23 1130h163l418 -1087l-127 -66zM160 -213h88q39 0 67 6t48.5 19.5t34.5 36t26 55.5l47 121l31 47l401 1058h160l-488 -1243q-23 -60 -50.5 -103.5t-65 -71.5t-86.5 -41t-115 -13h-20h-28q-15 0 -29 0.5t-21 1.5v127z" />
<glyph unicode="z" horiz-adv-x="1028" d="M68 0v117l675 872h-641v141h840v-118l-676 -879h699v-133h-897z" />
<glyph unicode="{" horiz-adv-x="1022" d="M168 557v135q67 0 116 3.5t81.5 15.5t48.5 34t16 60q0 27 -8.5 66.5t-21 86.5t-27 97.5t-27 99.5t-21 92.5t-8.5 75.5q0 67 18 117t59.5 83t107.5 49.5t162 16.5h157v-141h-129q-65 0 -107 -9.5t-66.5 -29t-34 -50.5t-9.5 -73q0 -25 8 -63.5t20 -84.5t26.5 -96t26.5 -98 t20 -90.5t8 -73.5q0 -59 -28 -97.5t-87 -55.5q62 -20 88.5 -58.5t26.5 -97.5q0 -31 -8 -73.5t-20 -90.5t-26.5 -98.5t-26.5 -96.5t-20 -85t-8 -64q0 -43 9.5 -74t34 -51t66.5 -29.5t107 -9.5h129v-137h-157q-96 0 -162 16.5t-107.5 49.5t-59.5 83t-18 117q0 32 8.5 75.5 t21 92.5t27 100t27 98t21 87.5t8.5 67.5q0 34 -14 55t-45.5 33t-81.5 16t-121 4z" />
<glyph unicode="|" horiz-adv-x="664" d="M252 -338v1927h158v-1927h-158z" />
<glyph unicode="}" horiz-adv-x="1022" d="M201 -201h131q65 0 107 9.5t66 29.5t33 51t9 74q0 25 -8 64t-20 85t-26.5 96.5t-26.5 98.5t-20 90.5t-8 73.5q0 119 115 156q-62 18 -88.5 57t-26.5 96q0 31 8 73.5t20 90.5t26.5 98t26.5 96t20 84.5t8 63.5q0 42 -9 73t-33 50.5t-66 29t-107 9.5h-131v141h157 q97 0 163.5 -16.5t107.5 -49.5t59.5 -83t18.5 -117q0 -32 -8.5 -75.5t-21.5 -92.5t-27.5 -99.5t-27.5 -97.5t-21.5 -87t-8.5 -66q0 -35 14.5 -56.5t46 -33.5t81 -16.5t120.5 -4.5v-135q-67 0 -116 -3.5t-81.5 -15t-48.5 -33t-16 -58.5q0 -27 8.5 -67.5t21.5 -87.5t27.5 -98 t27.5 -100t21.5 -92.5t8.5 -75.5q0 -67 -18.5 -117t-59.5 -83t-107.5 -49.5t-163.5 -16.5h-157v137z" />
<glyph unicode="~" horiz-adv-x="1208" d="M211 945q25 31 55 59t62 48.5t65.5 32.5t67.5 12q52 0 88.5 -15.5t67.5 -34t60.5 -34t67.5 -15.5q20 0 40.5 9t40.5 24.5t40 35.5t39 42l94 -76q-26 -32 -55 -62t-61 -53t-66 -37t-69 -14q-46 0 -82.5 16t-69 34.5t-64.5 34.5t-69 16t-78.5 -27t-75.5 -72z" />
<glyph unicode="&#xa1;" horiz-adv-x="733" d="M264 1292v226h207v-226h-207zM281 0l18 1100h137l17 -1100h-172z" />
<glyph unicode="&#xa2;" horiz-adv-x="1143" d="M102 567q0 134 25 242t87.5 184.5t167 118t263.5 41.5q77 0 138 -12.5t110 -34t87 -50.5t69 -61l-111 -104q-20 21 -46.5 42t-61.5 38t-81 28t-104 11q-111 0 -186 -30t-120.5 -87.5t-65 -140.5t-19.5 -189q0 -104 19 -187t64 -141t120 -89t188 -31q50 0 91 8t77 23.5 t69 38t66 51.5l101 -97q-42 -38 -84.5 -66.5t-91 -48.5t-105.5 -30t-127 -10q-158 0 -261.5 41t-165.5 117t-87 183.5t-25 241.5zM565 41l8 25v1011l-8 25v176h148v-174l-11 -27v-1018l11 -28v-224h-148v234z" />
<glyph unicode="&#xa3;" horiz-adv-x="1251" d="M72 721v131h821v-131h-821zM88 0v135q97 0 153.5 13.5t84.5 42.5t35.5 74t7.5 108q0 51 -11 113t-27 130t-35 139t-35 140.5t-27 134.5t-11 121q0 88 23 160.5t75 124t136.5 80t208.5 28.5q118 0 213 -19.5t186 -58.5l-61 -135q-76 35 -162 50.5t-178 15.5 q-83 0 -138.5 -19t-88.5 -53.5t-46.5 -83t-13.5 -108.5q0 -49 10 -109t25 -126t32.5 -135.5t32.5 -137.5t25 -131.5t10 -118.5q0 -91 -16 -161t-62.5 -117.5t-129.5 -72t-216 -24.5zM338 145l72 105q35 -21 83 -43.5t104.5 -41t119 -30.5t127.5 -12q59 0 94.5 12t55 37 t26 64t6.5 94v49h139v-53q0 -92 -15 -156.5t-51.5 -106t-98 -60.5t-154.5 -19q-78 0 -152.5 14t-140.5 37t-121 51.5t-94 58.5z" />
<glyph unicode="&#xa4;" horiz-adv-x="1152" d="M92 392l208 216q-28 40 -38 78t-10 94q0 48 10 90t38 82l-208 216l116 108l200 -216q72 48 164 48q96 0 168 -48l204 216l116 -120l-208 -204q28 -40 38 -80t10 -92q0 -96 -52 -172l208 -216l-116 -108l-200 216q-72 -48 -168 -48q-92 0 -164 48l-200 -216zM400 780 q0 -80 50 -128t122 -48q80 0 128 48t48 128t-50 130t-126 50t-124 -50t-48 -130z" />
<glyph unicode="&#xa5;" horiz-adv-x="1280" d="M33 1518h164l444 -730l442 730h164l-542 -881h-132zM135 172v137h1012v-137h-1012zM135 481v137h1012v-137h-1012zM563 0v717h154v-717h-154z" />
<glyph unicode="&#xa6;" horiz-adv-x="664" d="M252 -338v803h158v-803h-158zM252 786v803h158v-803h-158z" />
<glyph unicode="&#xa7;" horiz-adv-x="1114" d="M111 762q0 157 113 228t331 71q220 0 334.5 -71t114.5 -228q0 -78 -29 -134t-85.5 -92t-140.5 -52.5t-194 -16.5q-218 0 -331 69t-113 226zM184 -16v131h109q67 0 106.5 16.5t59 46t25 69t5.5 85.5v170h156v-166q0 -73 -10 -137.5t-45 -112.5t-102 -76t-181 -28 q-12 0 -30.5 0.5t-37 0.5t-34 0.5t-21.5 0.5zM242 760q0 -98 78 -140t235 -42q158 0 237.5 42t79.5 140q0 97 -79 137.5t-238 40.5q-158 0 -235.5 -40.5t-77.5 -137.5zM459 1014v166q0 73 10 137.5t45 112.5t101.5 76t179.5 28h30h38q19 0 35 -0.5t22 -1.5v-135h-109 q-68 0 -108 -16.5t-60 -45.5t-25.5 -68.5t-5.5 -84.5v-168h-153z" />
<glyph unicode="&#xa8;" horiz-adv-x="1208" d="M317 1253v209h144v-209h-144zM750 1253v209h141v-209h-141z" />
<glyph unicode="&#xa9;" horiz-adv-x="1704" d="M90 760q0 173 47 317t141.5 248t236.5 161.5t333 57.5t334 -57.5t238 -161.5t142.5 -248t47.5 -317t-47.5 -317t-142.5 -248t-238 -162t-334 -58t-333 58t-236.5 162t-141.5 248t-47 317zM168 760q0 -157 40.5 -287.5t124 -224t211.5 -145.5t304 -52q177 0 306 52 t213.5 145.5t125.5 224t41 287.5t-41 287t-125.5 223.5t-213.5 145.5t-306 52q-176 0 -304 -52t-211.5 -145.5t-124 -223.5t-40.5 -287zM360 768q0 133 36 232t102 163.5t160 96.5t210 32q104 0 196.5 -32t160.5 -95l-78 -80q-54 48 -127 74.5t-154 26.5q-92 0 -165 -26.5 t-123.5 -79t-77.5 -131t-27 -181.5q0 -208 101 -314t294 -106q55 0 98.5 8t78.5 22.5t62.5 33t49.5 39.5l74 -76q-27 -26 -61 -50.5t-78.5 -43.5t-100.5 -30t-127 -11q-247 0 -375.5 133.5t-128.5 394.5z" />
<glyph unicode="&#xaa;" horiz-adv-x="1206" d="M133 862q0 97 36.5 161.5t112 103t191.5 54t275 15.5h65v-106h-57q-139 0 -234 -10t-153 -35.5t-83.5 -68t-25.5 -106.5q0 -81 51.5 -126.5t167.5 -45.5q159 0 237.5 77t78.5 245v151q0 68 -8 115t-33 76.5t-72 43t-125 13.5q-42 0 -81.5 -7.5t-74.5 -18.5t-63.5 -25 t-48.5 -27l-72 103q23 15 59.5 32t82 31.5t98.5 23.5t110 9q115 0 185 -20.5t108.5 -65t51 -114.5t12.5 -169v-340q0 -38 2.5 -60t12.5 -33.5t29 -15t52 -3.5v-119q-8 0 -18.5 -1t-28.5 -1q-45 0 -75 5.5t-49.5 22t-29 47t-12.5 79.5q-21 -43 -50.5 -74.5t-72 -52.5 t-99.5 -31t-132 -10q-88 0 -149 20t-99 56.5t-55 88t-17 113.5zM219 307v121h709v-121h-709z" />
<glyph unicode="&#xab;" horiz-adv-x="1386" d="M195 563l309 567h139l-299 -567l299 -563h-139zM692 563l309 567h142l-301 -567l301 -563h-142z" />
<glyph unicode="&#xac;" horiz-adv-x="1536" d="M212 728v192h1084v-568h-180v376h-904z" />
<glyph unicode="&#xad;" horiz-adv-x="926" d="M106 557v145h711v-145h-711z" />
<glyph unicode="&#xae;" horiz-adv-x="1704" d="M90 760q0 173 47 317t141.5 248t236.5 161.5t333 57.5t334 -57.5t238 -161.5t142.5 -248t47.5 -317t-47.5 -317t-142.5 -248t-238 -162t-334 -58t-333 58t-236.5 162t-141.5 248t-47 317zM168 760q0 -157 40.5 -287.5t124 -224t211.5 -145.5t304 -52q177 0 306 52 t213.5 145.5t125.5 224t41 287.5t-41 287t-125.5 223.5t-213.5 145.5t-306 52q-176 0 -304 -52t-211.5 -145.5t-124 -223.5t-40.5 -287zM487 250v1010h435q93 0 156.5 -18t103.5 -54.5t57.5 -91.5t17.5 -129q0 -75 -18 -130.5t-58 -92.5t-104 -55.5t-155 -18.5h-328v-420 h-107zM594 766h328q57 0 99.5 9.5t71.5 33t43.5 61.5t14.5 95q0 56 -14 93.5t-42.5 60.5t-72 32.5t-102.5 9.5h-326v-395zM868 721h111l276 -471h-114z" />
<glyph unicode="&#xaf;" horiz-adv-x="1208" d="M236 1241v133h737v-133h-737z" />
<glyph unicode="&#xb0;" horiz-adv-x="1165" d="M137 1057q0 106 25 195t79 153.5t138 100.5t203 36q118 0 202.5 -36t138.5 -100.5t79.5 -153.5t25.5 -195q0 -107 -25.5 -196t-79.5 -153.5t-138.5 -100.5t-202.5 -36q-119 0 -203 36t-138 100.5t-79 153.5t-25 196zM268 1055q0 -80 16.5 -146t54 -113.5t97.5 -73.5 t146 -26t146 26t97.5 73.5t54.5 113.5t17 146q0 79 -17 144.5t-54.5 112.5t-97.5 73t-146 26t-146 -26t-97.5 -73t-54 -112.5t-16.5 -144.5z" />
<glyph unicode="&#xb1;" horiz-adv-x="1425" d="M217 35v145h989v-145h-989zM217 649v148h418v415h153v-415h418v-148h-418v-418h-153v418h-418z" />
<glyph unicode="&#xb2;" horiz-adv-x="903" d="M125 1466q57 29 129.5 46.5t179.5 17.5q152 0 227.5 -55.5t75.5 -182.5q0 -55 -12.5 -99t-39.5 -86t-69 -87t-100 -102l-219 -222h451v-104h-617v94l293 291q57 56 93.5 94.5t57.5 71.5t29 65t8 74q0 71 -43.5 105t-146.5 34q-75 0 -136.5 -14.5t-105.5 -36.5z" />
<glyph unicode="&#xb3;" horiz-adv-x="944" d="M109 666l63 94q69 -40 134.5 -57t139.5 -17q58 0 100 8.5t69 29.5t40 56.5t13 89.5q0 45 -10 78t-36.5 55t-73.5 33t-122 11h-131v100h127q61 0 103 7t67 23.5t36 44t11 68.5q0 74 -46 102.5t-149 28.5q-68 0 -134.5 -16t-119.5 -47l-61 94q33 20 72 35t82 25t87.5 15 t88.5 5q81 0 139.5 -12.5t95.5 -39.5t54.5 -68.5t17.5 -98.5q0 -87 -31 -136.5t-100 -72.5q85 -20 121.5 -82t36.5 -164q0 -78 -20.5 -131.5t-62 -86t-104.5 -46.5t-149 -14q-52 0 -97 4.5t-87 14.5t-82 26.5t-82 40.5z" />
<glyph unicode="&#xb4;" horiz-adv-x="1208" d="M446 1249l310 320h190l-352 -320h-148z" />
<glyph unicode="&#xb6;" horiz-adv-x="1268" d="M111 1065q0 117 26.5 202t86.5 141t158 83t241 27h452v-1518h-147v596h-303q-144 0 -242.5 29t-159 87.5t-86.5 146.5t-26 206zM266 1059q0 -91 20 -154t62 -102t108 -56.5t158 -17.5h314v645h-307q-96 0 -163.5 -15.5t-110 -52.5t-62 -97t-19.5 -150zM526 0v655h148 v-655h-148z" />
<glyph unicode="&#xb7;" horiz-adv-x="489" d="M141 561v232h205v-232h-205z" />
<glyph unicode="&#xb8;" horiz-adv-x="1208" d="M383 -401l47 86q40 -22 86.5 -34.5t97.5 -12.5q52 0 83.5 9t49 24t23.5 34.5t6 40.5q0 28 -9 47t-31 30t-59 14.5t-93 0.5l-45 33l28 143h101l-19 -106q46 3 89.5 -0.5t77 -21.5t53.5 -53.5t20 -96.5q0 -43 -13.5 -79t-45 -62.5t-82.5 -41t-127 -14.5q-78 0 -135 17 t-103 43z" />
<glyph unicode="&#xb9;" horiz-adv-x="672" d="M127 1405v113h309v-926h-125v813h-184z" />
<glyph unicode="&#xba;" horiz-adv-x="1212" d="M166 1067q0 235 108 355t332 120q221 0 331 -120t110 -355t-110 -356t-331 -121q-224 0 -332 121t-108 356zM221 305v123h770v-123h-770zM299 1065q0 -173 75 -263.5t232 -90.5q156 0 231.5 90t75.5 264q0 173 -75.5 261.5t-231.5 88.5q-157 0 -232 -89t-75 -261z" />
<glyph unicode="&#xbb;" horiz-adv-x="1386" d="M248 0l299 565l-299 565h137l309 -565l-309 -565h-137zM743 0l299 565l-299 565h142l309 -565l-309 -565h-142z" />
<glyph unicode="&#xbc;" horiz-adv-x="1786" d="M115 1401v117h313v-930h-129v813h-184zM362 0l846 1518h142l-846 -1518h-142zM969 217v98l413 615h140l-410 -606h311l23 251h100v-251h154v-107h-154v-217h-123v217h-454z" />
<glyph unicode="&#xbd;" horiz-adv-x="1925" d="M115 1401v117h313v-930h-129v813h-184zM362 0l846 1518h142l-846 -1518h-142zM1145 877q58 27 131 45t180 18q152 0 226.5 -55.5t74.5 -184.5q0 -55 -12 -98.5t-38.5 -85t-68 -86.5t-100.5 -104l-215 -217h432v-109h-604v98l293 289q57 58 94 96.5t58.5 70.5t29.5 62.5 t8 71.5q0 71 -43.5 105t-146.5 34q-76 0 -137 -15.5t-105 -37.5z" />
<glyph unicode="&#xbe;" horiz-adv-x="1978" d="M78 674l67 98q71 -40 134 -57t137 -17q57 0 98.5 7.5t68.5 28t39.5 55.5t12.5 90q0 44 -10 76.5t-36.5 53.5t-73 31.5t-120.5 10.5h-129v108h125q62 0 104 6.5t67.5 22.5t36.5 42.5t11 67.5q0 37 -11.5 62t-35.5 40t-61 21t-88 6q-68 0 -134 -16.5t-118 -48.5l-64 98 q66 42 153 62t177 20q81 0 139.5 -12.5t95.5 -39.5t54.5 -69t17.5 -100q0 -87 -32.5 -135.5t-100.5 -73.5q82 -20 121 -81t39 -165q0 -79 -20.5 -132.5t-62 -86.5t-104.5 -47t-149 -14q-51 0 -96 4.5t-87 15t-82.5 27.5t-82.5 41zM557 0l846 1518h141l-848 -1518h-139z M1163 217v98l412 615h141l-411 -606h313l22 251h101v-251h151v-107h-151v-217h-125v217h-453z" />
<glyph unicode="&#xbf;" horiz-adv-x="1360" d="M168 348q0 76 19 132t55 100t89 80.5t122 74.5q70 39 111 72t61 74.5t22.5 98.5t-4.5 144h154q10 -101 6 -171.5t-29.5 -124t-74.5 -96t-128 -87.5q-70 -39 -116.5 -69.5t-74.5 -61.5t-40 -67.5t-12 -88.5q0 -51 11.5 -93t48 -71t104.5 -45t180 -16q122 0 236.5 27.5 t207.5 77.5l68 -136q-50 -27 -112 -48.5t-130 -36.5t-139.5 -23t-140.5 -8q-146 0 -241 23t-151.5 69t-79 113.5t-22.5 156.5zM618 1319v209h205v-209h-205z" />
<glyph unicode="&#xc0;" horiz-adv-x="1487" d="M51 0l608 1528h162l609 -1528h-164l-140 350h-778l-137 -350h-160zM397 1927h191l309 -320h-148zM403 498h666l-332 835z" />
<glyph unicode="&#xc1;" horiz-adv-x="1487" d="M51 0l608 1528h162l609 -1528h-164l-140 350h-778l-137 -350h-160zM403 498h666l-332 835zM581 1607l310 320h190l-352 -320h-148z" />
<glyph unicode="&#xc2;" horiz-adv-x="1487" d="M51 0l608 1528h162l609 -1528h-164l-140 350h-778l-137 -350h-160zM340 1607l311 320h174l311 -320h-155l-246 219l-242 -219h-153zM403 498h666l-332 835z" />
<glyph unicode="&#xc3;" horiz-adv-x="1487" d="M51 0l608 1528h162l609 -1528h-164l-140 350h-778l-137 -350h-160zM346 1689q25 31 55 59t62 48.5t65.5 32.5t67.5 12q52 0 88.5 -15.5t67.5 -34t60.5 -34t67.5 -15.5q20 0 40.5 9t40.5 24.5t40 35.5t39 42l94 -76q-26 -32 -55 -62t-61 -53t-66 -37t-69 -14 q-46 0 -82.5 16t-69 34.5t-64.5 34.5t-69 16t-78.5 -27t-75.5 -72zM403 498h666l-332 835z" />
<glyph unicode="&#xc4;" horiz-adv-x="1487" d="M51 0l608 1528h162l609 -1528h-164l-140 350h-778l-137 -350h-160zM403 498h666l-332 835zM452 1611v209h144v-209h-144zM885 1611v209h141v-209h-141z" />
<glyph unicode="&#xc5;" horiz-adv-x="1487" d="M53 0l574 1442q-68 28 -98.5 88.5t-30.5 140.5q0 52 14 97.5t43 79.5t75 53.5t111 19.5q62 0 108.5 -19.5t77 -53.5t45.5 -79.5t15 -97.5q0 -78 -32.5 -139t-98.5 -90l576 -1442h-162l-140 348h-782l-135 -348h-160zM406 496h667l-334 837zM588 1671q0 -35 8.5 -64 t27.5 -50.5t47.5 -33.5t69.5 -12t70 12t48 33.5t27.5 50.5t8.5 64q0 34 -8.5 63t-27.5 50.5t-48 34t-70 12.5t-69.5 -12.5t-47.5 -34t-27.5 -50.5t-8.5 -63z" />
<glyph unicode="&#xc6;" horiz-adv-x="2191" d="M41 0l954 1518h1071v-154h-843v-502h823v-147h-823v-568h852v-147h-1006v344h-649l-219 -344h-160zM502 483h567v889z" />
<glyph unicode="&#xc7;" horiz-adv-x="1477" d="M90 760q0 199 50.5 346t147 244t237.5 144.5t321 47.5q162 0 296 -47t234 -143l-114 -115q-82 74 -187.5 113t-230.5 39q-293 0 -442.5 -158t-149.5 -473q0 -155 35.5 -273t109 -197t185.5 -119t264 -40q85 0 150 12.5t115.5 34t89.5 49.5t73 60l112 -109 q-39 -38 -88 -74t-114.5 -64t-150 -44.5t-195.5 -16.5h-43l-13 -69q46 3 89.5 -0.5t77 -21.5t53.5 -53.5t20 -96.5q0 -43 -13.5 -79t-45 -62.5t-82.5 -41t-127 -14.5q-78 0 -134.5 17t-103.5 43l47 86q40 -22 87 -34.5t98 -12.5t83 9t49 24t23 34.5t6 40.5q0 28 -9 47 t-31 30t-59 14.5t-93 0.5l-45 33l22 115q-308 35 -456 231t-148 543z" />
<glyph unicode="&#xc8;" horiz-adv-x="1309" d="M178 0v1518h1004v-154h-842v-502h821v-151h-821v-564h850v-147h-1012zM309 1927h191l309 -320h-148z" />
<glyph unicode="&#xc9;" horiz-adv-x="1309" d="M178 0v1518h1004v-154h-842v-502h821v-151h-821v-564h850v-147h-1012zM493 1607l310 320h190l-352 -320h-148z" />
<glyph unicode="&#xca;" horiz-adv-x="1309" d="M178 0v1518h1004v-154h-842v-502h821v-151h-821v-564h850v-147h-1012zM252 1607l311 320h174l311 -320h-155l-246 219l-242 -219h-153z" />
<glyph unicode="&#xcb;" horiz-adv-x="1309" d="M178 0v1518h1004v-154h-842v-502h821v-151h-821v-564h850v-147h-1012zM364 1611v209h144v-209h-144zM797 1611v209h141v-209h-141z" />
<glyph unicode="&#xcc;" horiz-adv-x="547" d="M-111 1927h195l268 -319h-149zM195 0v1518h157v-1518h-157z" />
<glyph unicode="&#xcd;" horiz-adv-x="547" d="M195 0v1518h157v-1518h-157zM195 1608l266 319h194l-311 -319h-149z" />
<glyph unicode="&#xce;" horiz-adv-x="547" d="M-76 1608l264 319h168l262 -319h-153l-195 223l-194 -223h-152zM195 0v1518h157v-1518h-157z" />
<glyph unicode="&#xcf;" horiz-adv-x="547" d="M-12 1611v209h144v-209h-144zM195 0v1518h157v-1518h-157zM421 1611v209h141v-209h-141z" />
<glyph unicode="&#xd0;" horiz-adv-x="1540" d="M0 719v135h684v-135h-684zM178 0v1518h496q213 0 361.5 -36t241 -123t134 -233t41.5 -366q0 -215 -46.5 -361t-144.5 -234.5t-250 -126.5t-364 -38h-469zM340 147h313q180 0 302 32.5t196.5 105t106.5 189.5t32 286q0 115 -12 204.5t-40 156.5t-74.5 114t-114.5 76 t-160.5 42t-212.5 13h-336v-1219z" />
<glyph unicode="&#xd1;" horiz-adv-x="1595" d="M178 0v1518h176l908 -1252v1252h155v-1518h-147l-936 1288v-1288h-156zM401 1689q25 31 55 59t62 48.5t65.5 32.5t67.5 12q52 0 88.5 -15.5t67.5 -34t60.5 -34t67.5 -15.5q20 0 40.5 9t40.5 24.5t40 35.5t39 42l94 -76q-26 -32 -55 -62t-61 -53t-66 -37t-69 -14 q-46 0 -82.5 16t-69 34.5t-64.5 34.5t-69 16t-78.5 -27t-75.5 -72z" />
<glyph unicode="&#xd2;" horiz-adv-x="1708" d="M90 760q0 202 51 349.5t148.5 243.5t239 142.5t323.5 46.5q183 0 325.5 -46.5t240.5 -142.5t149 -243.5t51 -349.5q0 -204 -51 -352t-149 -244t-240.5 -142.5t-325.5 -46.5q-182 0 -323.5 46.5t-239 142.5t-148.5 244t-51 352zM252 758q0 -155 36 -273t109.5 -198 t186.5 -121t268 -41t269 41t188.5 121t110.5 198t36 273q0 153 -36 271t-110.5 198t-188.5 121t-269 41t-268 -41t-186.5 -121t-109.5 -198t-36 -271zM510 1927h191l309 -320h-148z" />
<glyph unicode="&#xd3;" horiz-adv-x="1708" d="M90 760q0 202 51 349.5t148.5 243.5t239 142.5t323.5 46.5q183 0 325.5 -46.5t240.5 -142.5t149 -243.5t51 -349.5q0 -204 -51 -352t-149 -244t-240.5 -142.5t-325.5 -46.5q-182 0 -323.5 46.5t-239 142.5t-148.5 244t-51 352zM252 758q0 -155 36 -273t109.5 -198 t186.5 -121t268 -41t269 41t188.5 121t110.5 198t36 273q0 153 -36 271t-110.5 198t-188.5 121t-269 41t-268 -41t-186.5 -121t-109.5 -198t-36 -271zM694 1607l310 320h190l-352 -320h-148z" />
<glyph unicode="&#xd4;" horiz-adv-x="1708" d="M90 760q0 202 51 349.5t148.5 243.5t239 142.5t323.5 46.5q183 0 325.5 -46.5t240.5 -142.5t149 -243.5t51 -349.5q0 -204 -51 -352t-149 -244t-240.5 -142.5t-325.5 -46.5q-182 0 -323.5 46.5t-239 142.5t-148.5 244t-51 352zM252 758q0 -155 36 -273t109.5 -198 t186.5 -121t268 -41t269 41t188.5 121t110.5 198t36 273q0 153 -36 271t-110.5 198t-188.5 121t-269 41t-268 -41t-186.5 -121t-109.5 -198t-36 -271zM453 1607l311 320h174l311 -320h-155l-246 219l-242 -219h-153z" />
<glyph unicode="&#xd5;" horiz-adv-x="1708" d="M90 760q0 202 51 349.5t148.5 243.5t239 142.5t323.5 46.5q183 0 325.5 -46.5t240.5 -142.5t149 -243.5t51 -349.5q0 -204 -51 -352t-149 -244t-240.5 -142.5t-325.5 -46.5q-182 0 -323.5 46.5t-239 142.5t-148.5 244t-51 352zM252 758q0 -155 36 -273t109.5 -198 t186.5 -121t268 -41t269 41t188.5 121t110.5 198t36 273q0 153 -36 271t-110.5 198t-188.5 121t-269 41t-268 -41t-186.5 -121t-109.5 -198t-36 -271zM459 1689q25 31 55 59t62 48.5t65.5 32.5t67.5 12q52 0 88.5 -15.5t67.5 -34t60.5 -34t67.5 -15.5q20 0 40.5 9t40.5 24.5 t40 35.5t39 42l94 -76q-26 -32 -55 -62t-61 -53t-66 -37t-69 -14q-46 0 -82.5 16t-69 34.5t-64.5 34.5t-69 16t-78.5 -27t-75.5 -72z" />
<glyph unicode="&#xd6;" horiz-adv-x="1708" d="M90 760q0 202 51 349.5t148.5 243.5t239 142.5t323.5 46.5q183 0 325.5 -46.5t240.5 -142.5t149 -243.5t51 -349.5q0 -204 -51 -352t-149 -244t-240.5 -142.5t-325.5 -46.5q-182 0 -323.5 46.5t-239 142.5t-148.5 244t-51 352zM252 758q0 -155 36 -273t109.5 -198 t186.5 -121t268 -41t269 41t188.5 121t110.5 198t36 273q0 153 -36 271t-110.5 198t-188.5 121t-269 41t-268 -41t-186.5 -121t-109.5 -198t-36 -271zM565 1611v209h144v-209h-144zM998 1611v209h141v-209h-141z" />
<glyph unicode="&#xd7;" horiz-adv-x="1425" d="M291 397l325 324l-325 326l96 100l326 -326l323 326l97 -100l-324 -326l324 -324l-97 -98l-323 326l-328 -326z" />
<glyph unicode="&#xd8;" horiz-adv-x="1708" d="M90 760q0 403 193 592.5t569 189.5q91 0 172.5 -10.5t151.5 -32.5l59 105h156l-90 -158q157 -87 237 -257t80 -429q0 -405 -194 -595t-572 -190q-99 0 -185.5 13t-159.5 38l-63 -110h-155l94 169q-145 89 -219 256.5t-74 418.5zM248 758q0 -191 52.5 -328t165.5 -213 l639 1143q-54 16 -117.5 24.5t-135.5 8.5q-322 0 -463 -163.5t-141 -471.5zM576 162q57 -20 126 -30.5t150 -10.5q324 0 466 164t142 473q0 199 -58 339.5t-184 213.5z" />
<glyph unicode="&#xd9;" horiz-adv-x="1593" d="M168 547v971h162v-953q0 -97 19 -177.5t70 -139t141.5 -91t234.5 -32.5q145 0 237.5 32t145 90t72.5 139t20 179v953h155v-971q0 -75 -9.5 -147t-35 -135.5t-69.5 -116.5t-114 -91.5t-169 -60t-233 -21.5q-135 0 -233.5 21.5t-168.5 60t-113.5 92t-68.5 117t-34 135 t-9 146.5zM452 1927h191l309 -320h-148z" />
<glyph unicode="&#xda;" horiz-adv-x="1593" d="M168 547v971h162v-953q0 -97 19 -177.5t70 -139t141.5 -91t234.5 -32.5q145 0 237.5 32t145 90t72.5 139t20 179v953h155v-971q0 -75 -9.5 -147t-35 -135.5t-69.5 -116.5t-114 -91.5t-169 -60t-233 -21.5q-135 0 -233.5 21.5t-168.5 60t-113.5 92t-68.5 117t-34 135 t-9 146.5zM636 1607l310 320h190l-352 -320h-148z" />
<glyph unicode="&#xdb;" horiz-adv-x="1593" d="M168 547v971h162v-953q0 -97 19 -177.5t70 -139t141.5 -91t234.5 -32.5q145 0 237.5 32t145 90t72.5 139t20 179v953h155v-971q0 -75 -9.5 -147t-35 -135.5t-69.5 -116.5t-114 -91.5t-169 -60t-233 -21.5q-135 0 -233.5 21.5t-168.5 60t-113.5 92t-68.5 117t-34 135 t-9 146.5zM395 1607l311 320h174l311 -320h-155l-246 219l-242 -219h-153z" />
<glyph unicode="&#xdc;" horiz-adv-x="1593" d="M168 547v971h162v-953q0 -97 19 -177.5t70 -139t141.5 -91t234.5 -32.5q145 0 237.5 32t145 90t72.5 139t20 179v953h155v-971q0 -75 -9.5 -147t-35 -135.5t-69.5 -116.5t-114 -91.5t-169 -60t-233 -21.5q-135 0 -233.5 21.5t-168.5 60t-113.5 92t-68.5 117t-34 135 t-9 146.5zM507 1611v209h144v-209h-144zM940 1611v209h141v-209h-141z" />
<glyph unicode="&#xdd;" horiz-adv-x="1434" d="M27 1518h176l516 -783l520 783h166l-623 -947h-133zM557 1607l310 320h190l-352 -320h-148zM637 0v670h160v-670h-160z" />
<glyph unicode="&#xde;" horiz-adv-x="1446" d="M178 0v1518h158v-250h508q143 0 241 -27t158 -83t86.5 -142t26.5 -203t-26 -206.5t-86.5 -149.5t-159 -90.5t-242.5 -30.5h-506v-336h-158zM336 483h510q93 0 159.5 17.5t108.5 56.5t62 101t20 151q0 90 -19.5 150t-62 96.5t-110 51.5t-164.5 15h-504v-639z" />
<glyph unicode="&#xdf;" horiz-adv-x="1327" d="M156 0v1112q0 100 25 188t84.5 153.5t157 103.5t241.5 38q244 0 357.5 -97.5t113.5 -295.5q0 -77 -15.5 -136.5t-44 -104t-69.5 -74t-93 -47.5q85 -15 148.5 -46t105.5 -79.5t63 -117t21 -159.5q0 -101 -22 -182t-84.5 -138t-175 -87.5t-293.5 -30.5h-133v141h129 q93 0 160.5 10.5t115 30t77 47.5t46 61.5t22 73t5.5 82.5q0 77 -21.5 134t-73.5 95t-138 56.5t-216 18.5v131q163 0 247.5 69.5t84.5 216.5q0 69 -18 120.5t-56.5 85.5t-99 50.5t-145.5 16.5q-93 0 -160 -23.5t-109.5 -67t-63 -105t-20.5 -138.5v-1106h-153z" />
<glyph unicode="&#xe0;" d="M90 315q0 121 37 201.5t124.5 128.5t232.5 68t360 20h88v-141h-80q-123 0 -216 -5t-161 -16.5t-113.5 -31.5t-72.5 -49.5t-38 -70t-11 -93.5q0 -51 13 -90.5t44 -67t83 -41.5t130 -14q107 0 183 23.5t124.5 72t71 123.5t22.5 178v190q0 82 -9 141t-40.5 97t-92 56 t-163.5 18q-54 0 -103 -8.5t-92.5 -23t-79.5 -32t-63 -35.5l-82 121q28 19 72.5 40.5t101 40t122 30.5t136.5 12q143 0 230 -26t134.5 -81t63 -142t15.5 -208v-426q0 -45 3 -72t14.5 -41.5t35 -19t64.5 -4.5v-135q-8 -3 -23.5 -3.5t-38.5 -0.5q-49 0 -81.5 8t-53 25 t-31.5 43.5t-18 64.5q-26 -40 -63 -69.5t-90.5 -49.5t-125 -30t-166.5 -10q-119 0 -196 25.5t-121.5 70.5t-62 106.5t-17.5 132.5zM295 1569h191l309 -320h-148z" />
<glyph unicode="&#xe1;" d="M90 315q0 121 37 201.5t124.5 128.5t232.5 68t360 20h88v-141h-80q-123 0 -216 -5t-161 -16.5t-113.5 -31.5t-72.5 -49.5t-38 -70t-11 -93.5q0 -51 13 -90.5t44 -67t83 -41.5t130 -14q107 0 183 23.5t124.5 72t71 123.5t22.5 178v190q0 82 -9 141t-40.5 97t-92 56 t-163.5 18q-54 0 -103 -8.5t-92.5 -23t-79.5 -32t-63 -35.5l-82 121q28 19 72.5 40.5t101 40t122 30.5t136.5 12q143 0 230 -26t134.5 -81t63 -142t15.5 -208v-426q0 -45 3 -72t14.5 -41.5t35 -19t64.5 -4.5v-135q-8 -3 -23.5 -3.5t-38.5 -0.5q-49 0 -81.5 8t-53 25 t-31.5 43.5t-18 64.5q-26 -40 -63 -69.5t-90.5 -49.5t-125 -30t-166.5 -10q-119 0 -196 25.5t-121.5 70.5t-62 106.5t-17.5 132.5zM479 1249l310 320h190l-352 -320h-148z" />
<glyph unicode="&#xe2;" d="M90 315q0 121 37 201.5t124.5 128.5t232.5 68t360 20h88v-141h-80q-123 0 -216 -5t-161 -16.5t-113.5 -31.5t-72.5 -49.5t-38 -70t-11 -93.5q0 -51 13 -90.5t44 -67t83 -41.5t130 -14q107 0 183 23.5t124.5 72t71 123.5t22.5 178v190q0 82 -9 141t-40.5 97t-92 56 t-163.5 18q-54 0 -103 -8.5t-92.5 -23t-79.5 -32t-63 -35.5l-82 121q28 19 72.5 40.5t101 40t122 30.5t136.5 12q143 0 230 -26t134.5 -81t63 -142t15.5 -208v-426q0 -45 3 -72t14.5 -41.5t35 -19t64.5 -4.5v-135q-8 -3 -23.5 -3.5t-38.5 -0.5q-49 0 -81.5 8t-53 25 t-31.5 43.5t-18 64.5q-26 -40 -63 -69.5t-90.5 -49.5t-125 -30t-166.5 -10q-119 0 -196 25.5t-121.5 70.5t-62 106.5t-17.5 132.5zM238 1249l311 320h174l311 -320h-155l-246 219l-242 -219h-153z" />
<glyph unicode="&#xe3;" d="M90 315q0 121 37 201.5t124.5 128.5t232.5 68t360 20h88v-141h-80q-123 0 -216 -5t-161 -16.5t-113.5 -31.5t-72.5 -49.5t-38 -70t-11 -93.5q0 -51 13 -90.5t44 -67t83 -41.5t130 -14q107 0 183 23.5t124.5 72t71 123.5t22.5 178v190q0 82 -9 141t-40.5 97t-92 56 t-163.5 18q-54 0 -103 -8.5t-92.5 -23t-79.5 -32t-63 -35.5l-82 121q28 19 72.5 40.5t101 40t122 30.5t136.5 12q143 0 230 -26t134.5 -81t63 -142t15.5 -208v-426q0 -45 3 -72t14.5 -41.5t35 -19t64.5 -4.5v-135q-8 -3 -23.5 -3.5t-38.5 -0.5q-49 0 -81.5 8t-53 25 t-31.5 43.5t-18 64.5q-26 -40 -63 -69.5t-90.5 -49.5t-125 -30t-166.5 -10q-119 0 -196 25.5t-121.5 70.5t-62 106.5t-17.5 132.5zM244 1331q25 31 55 59t62 48.5t65.5 32.5t67.5 12q52 0 88.5 -15.5t67.5 -34t60.5 -34t67.5 -15.5q20 0 40.5 9t40.5 24.5t40 35.5t39 42 l94 -76q-26 -32 -55 -62t-61 -53t-66 -37t-69 -14q-46 0 -82.5 16t-69 34.5t-64.5 34.5t-69 16t-78.5 -27t-75.5 -72z" />
<glyph unicode="&#xe4;" d="M90 315q0 121 37 201.5t124.5 128.5t232.5 68t360 20h88v-141h-80q-123 0 -216 -5t-161 -16.5t-113.5 -31.5t-72.5 -49.5t-38 -70t-11 -93.5q0 -51 13 -90.5t44 -67t83 -41.5t130 -14q107 0 183 23.5t124.5 72t71 123.5t22.5 178v190q0 82 -9 141t-40.5 97t-92 56 t-163.5 18q-54 0 -103 -8.5t-92.5 -23t-79.5 -32t-63 -35.5l-82 121q28 19 72.5 40.5t101 40t122 30.5t136.5 12q143 0 230 -26t134.5 -81t63 -142t15.5 -208v-426q0 -45 3 -72t14.5 -41.5t35 -19t64.5 -4.5v-135q-8 -3 -23.5 -3.5t-38.5 -0.5q-49 0 -81.5 8t-53 25 t-31.5 43.5t-18 64.5q-26 -40 -63 -69.5t-90.5 -49.5t-125 -30t-166.5 -10q-119 0 -196 25.5t-121.5 70.5t-62 106.5t-17.5 132.5zM350 1253v209h144v-209h-144zM783 1253v209h141v-209h-141z" />
<glyph unicode="&#xe5;" d="M90 315q0 121 37 201.5t124.5 128.5t232.5 68t360 20h88v-141h-80q-123 0 -216 -5t-161 -16.5t-113.5 -31.5t-72.5 -49.5t-38 -70t-11 -93.5q0 -51 13 -90.5t44 -67t83 -41.5t130 -14q107 0 183 23.5t124.5 72t71 123.5t22.5 178v190q0 82 -9 141t-40.5 97t-92 56 t-163.5 18q-54 0 -103 -8.5t-92.5 -23t-79.5 -32t-63 -35.5l-82 121q28 19 72.5 40.5t101 40t122 30.5t136.5 12q143 0 230 -26t134.5 -81t63 -142t15.5 -208v-426q0 -45 3 -72t14.5 -41.5t35 -19t64.5 -4.5v-135q-8 -3 -23.5 -3.5t-38.5 -0.5q-49 0 -81.5 8t-53 25 t-31.5 43.5t-18 64.5q-26 -40 -63 -69.5t-90.5 -49.5t-125 -30t-166.5 -10q-119 0 -196 25.5t-121.5 70.5t-62 106.5t-17.5 132.5zM391 1479q0 54 14 100t44 80.5t76.5 54t111.5 19.5q61 0 107 -19.5t76.5 -54t45.5 -80.5t15 -100t-15 -100t-45.5 -80t-76.5 -53t-107 -19 q-65 0 -111.5 19t-76.5 53t-44 80t-14 100zM484 1479q0 -34 8.5 -63t27 -50.5t47.5 -34t70 -12.5q40 0 69 12.5t47.5 34t27 50.5t8.5 63t-8.5 63t-27 50.5t-47.5 33.5t-69 12q-41 0 -70 -12t-47.5 -33.5t-27 -50.5t-8.5 -63z" />
<glyph unicode="&#xe6;" horiz-adv-x="2017" d="M90 315q0 121 37 201.5t124.5 128.5t232.5 68t360 20h88v-141h-80q-123 0 -216 -5t-161 -16.5t-113.5 -31.5t-72.5 -49.5t-38 -70t-11 -93.5q0 -51 13 -90.5t44 -67t83.5 -41.5t131.5 -14q106 0 181.5 23.5t124 72t71 123.5t22.5 178v190q0 82 -9 141t-40.5 97t-92 56 t-163.5 18q-54 0 -104 -8.5t-94 -22.5t-80.5 -31.5t-63.5 -34.5l-78 119q28 19 72.5 40.5t101 40t122 30.5t136.5 12q95 0 163.5 -12.5t115.5 -38t75 -63.5t43 -88.5t20 -114.5t5 -140v-315l-14 -61q-30 -105 -76.5 -171.5t-112.5 -105t-152.5 -53t-195.5 -14.5 q-100 0 -174.5 19t-124.5 59.5t-75 104t-25 152.5zM920 567q0 81 7.5 156t28 141t57 119.5t94 92.5t139.5 60t194 21q116 0 196 -24.5t132.5 -68.5t81 -104.5t41 -132t14 -151.5t0.5 -162h-934l2 141h784q-2 50 -6 96.5t-15 87t-31 73.5t-55 56.5t-86.5 36.5t-125.5 13 q-122 0 -197 -33.5t-117 -94t-56.5 -144t-14.5 -183.5q0 -98 14 -180.5t56.5 -142.5t120 -93.5t204.5 -33.5q69 0 121.5 8.5t94.5 24t77 36.5t69 45l84 -108q-43 -32 -88 -58.5t-98.5 -45t-117 -28.5t-142.5 -10q-116 0 -200 21.5t-142.5 60t-95 92.5t-56.5 119.5t-27 140.5 t-7 156z" />
<glyph unicode="&#xe7;" horiz-adv-x="1153" d="M100 567q0 135 25 244t87.5 186t167.5 118.5t265 41.5q76 0 138 -13t111.5 -35t88.5 -51.5t70 -62.5l-113 -106q-21 21 -48 42t-63 38t-81.5 28t-102.5 11q-111 0 -186 -29.5t-120 -86.5t-64 -140t-19 -189q0 -104 18.5 -186.5t63 -139.5t119.5 -87.5t188 -30.5 q48 0 89.5 7.5t78 22.5t70 37.5t65.5 51.5l105 -99q-42 -38 -85.5 -68t-92.5 -50t-106.5 -30.5t-127.5 -10.5h-6l-12 -72q46 3 89 -0.5t76.5 -21.5t53.5 -53.5t20 -96.5q0 -43 -13.5 -79t-44.5 -62.5t-82.5 -41t-127.5 -14.5q-77 0 -134 17t-104 43l47 86q41 -22 87.5 -34.5 t97.5 -12.5t83 9t49.5 24t23.5 34.5t6 40.5q0 28 -9 47t-31 30t-59.5 14.5t-93.5 0.5l-45 33l23 115q-126 14 -209.5 60.5t-134 121.5t-71 175.5t-20.5 223.5z" />
<glyph unicode="&#xe8;" horiz-adv-x="1214" d="M100 567q0 123 22.5 230.5t82 187.5t164 126t268.5 46q114 0 193 -24.5t131 -68.5t81 -104.5t42.5 -132t16 -151.5t1.5 -162h-934l2 141h784q-3 50 -7 96.5t-15 87t-31 73.5t-55 56.5t-87 36.5t-126 13q-122 0 -197 -33.5t-116 -94t-55.5 -144t-14.5 -183.5 q0 -98 14 -180.5t56.5 -142.5t119.5 -93.5t203 -33.5q70 0 123 8.5t95.5 24t77.5 36.5t69 45l84 -108q-42 -32 -88.5 -58.5t-100.5 -45t-118 -28.5t-142 -10q-114 0 -198.5 21t-144.5 59t-99 91.5t-61.5 119t-31 141.5t-8.5 158zM262 1569h191l309 -320h-148z" />
<glyph unicode="&#xe9;" horiz-adv-x="1214" d="M100 567q0 123 22.5 230.5t82 187.5t164 126t268.5 46q114 0 193 -24.5t131 -68.5t81 -104.5t42.5 -132t16 -151.5t1.5 -162h-934l2 141h784q-3 50 -7 96.5t-15 87t-31 73.5t-55 56.5t-87 36.5t-126 13q-122 0 -197 -33.5t-116 -94t-55.5 -144t-14.5 -183.5 q0 -98 14 -180.5t56.5 -142.5t119.5 -93.5t203 -33.5q70 0 123 8.5t95.5 24t77.5 36.5t69 45l84 -108q-42 -32 -88.5 -58.5t-100.5 -45t-118 -28.5t-142 -10q-114 0 -198.5 21t-144.5 59t-99 91.5t-61.5 119t-31 141.5t-8.5 158zM446 1249l310 320h190l-352 -320h-148z" />
<glyph unicode="&#xea;" horiz-adv-x="1214" d="M100 567q0 123 22.5 230.5t82 187.5t164 126t268.5 46q114 0 193 -24.5t131 -68.5t81 -104.5t42.5 -132t16 -151.5t1.5 -162h-934l2 141h784q-3 50 -7 96.5t-15 87t-31 73.5t-55 56.5t-87 36.5t-126 13q-122 0 -197 -33.5t-116 -94t-55.5 -144t-14.5 -183.5 q0 -98 14 -180.5t56.5 -142.5t119.5 -93.5t203 -33.5q70 0 123 8.5t95.5 24t77.5 36.5t69 45l84 -108q-42 -32 -88.5 -58.5t-100.5 -45t-118 -28.5t-142 -10q-114 0 -198.5 21t-144.5 59t-99 91.5t-61.5 119t-31 141.5t-8.5 158zM205 1249l311 320h174l311 -320h-155 l-246 219l-242 -219h-153z" />
<glyph unicode="&#xeb;" horiz-adv-x="1214" d="M100 567q0 123 22.5 230.5t82 187.5t164 126t268.5 46q114 0 193 -24.5t131 -68.5t81 -104.5t42.5 -132t16 -151.5t1.5 -162h-934l2 141h784q-3 50 -7 96.5t-15 87t-31 73.5t-55 56.5t-87 36.5t-126 13q-122 0 -197 -33.5t-116 -94t-55.5 -144t-14.5 -183.5 q0 -98 14 -180.5t56.5 -142.5t119.5 -93.5t203 -33.5q70 0 123 8.5t95.5 24t77.5 36.5t69 45l84 -108q-42 -32 -88.5 -58.5t-100.5 -45t-118 -28.5t-142 -10q-114 0 -198.5 21t-144.5 59t-99 91.5t-61.5 119t-31 141.5t-8.5 158zM317 1253v209h144v-209h-144zM750 1253v209 h141v-209h-141z" />
<glyph unicode="&#xec;" horiz-adv-x="487" d="M-102 1567h188l233 -318h-145zM166 0v1130h153v-1130h-153z" />
<glyph unicode="&#xed;" horiz-adv-x="487" d="M166 0v1130h153v-1130h-153zM170 1249l231 318h191l-277 -318h-145z" />
<glyph unicode="&#xee;" horiz-adv-x="487" d="M-80 1249l242 318h162l241 -318h-151l-172 221l-176 -221h-146zM166 0v1130h153v-1130h-153z" />
<glyph unicode="&#xef;" horiz-adv-x="487" d="M-14 1278v207h131v-207h-131zM166 0v1130h153v-1130h-153zM371 1278v207h131v-207h-131z" />
<glyph unicode="&#xf0;" horiz-adv-x="1292" d="M100 551q0 133 26.5 239t86.5 180t157 113t238 39q80 0 141.5 -8.5t108 -25.5t81 -42t60.5 -57q-37 157 -131.5 291t-251.5 262l138 66q62 -48 118.5 -101.5t105 -118.5t88 -143.5t67.5 -176t43.5 -217t15.5 -265.5q0 -158 -32 -272.5t-99.5 -189.5t-171 -111t-246.5 -36 q-147 0 -250 38t-168 111.5t-95 180t-30 244.5zM256 553q0 -107 21 -188t67 -136t120 -82.5t179 -27.5q107 0 181.5 27.5t121 82.5t67.5 136t21 188q0 108 -21 189t-67.5 135.5t-121 82t-181.5 27.5q-105 0 -179 -27.5t-120 -82t-67 -135.5t-21 -189zM616 1225v114l609 170 v-114z" />
<glyph unicode="&#xf1;" d="M156 0v1122l123 8l14 -118q18 29 49.5 55.5t81 46.5t120.5 31.5t169 11.5q136 0 217 -33.5t123 -95t54.5 -147.5t12.5 -191v-690h-155v664q0 75 -7.5 137.5t-37 107.5t-89 70t-163.5 25q-113 0 -183 -27.5t-108.5 -77t-52 -117t-13.5 -147.5v-635h-155zM240 1331 q25 31 55 59t62 48.5t65.5 32.5t67.5 12q52 0 88.5 -15.5t67.5 -34t60.5 -34t67.5 -15.5q20 0 40.5 9t40.5 24.5t40 35.5t39 42l94 -76q-26 -32 -55 -62t-61 -53t-66 -37t-69 -14q-46 0 -82.5 16t-69 34.5t-64.5 34.5t-69 16t-78.5 -27t-75.5 -72z" />
<glyph unicode="&#xf2;" horiz-adv-x="1292" d="M100 567q0 146 30 256.5t95.5 184.5t169 111.5t250.5 37.5t250.5 -37.5t169.5 -111.5t96.5 -184.5t30.5 -256.5t-30.5 -256.5t-96.5 -184.5t-169.5 -111.5t-250.5 -37.5t-250.5 37.5t-169 111.5t-95.5 184.5t-30 256.5zM256 563q0 -108 20.5 -191t67 -139.5t120.5 -85 t181 -28.5t181 28.5t120.5 85t67 139.5t20.5 191q0 109 -20.5 192.5t-67 140t-120.5 85.5t-181 29t-181 -29t-120.5 -85.5t-67 -140t-20.5 -192.5zM301 1569h191l309 -320h-148z" />
<glyph unicode="&#xf3;" horiz-adv-x="1292" d="M100 567q0 146 30 256.5t95.5 184.5t169 111.5t250.5 37.5t250.5 -37.5t169.5 -111.5t96.5 -184.5t30.5 -256.5t-30.5 -256.5t-96.5 -184.5t-169.5 -111.5t-250.5 -37.5t-250.5 37.5t-169 111.5t-95.5 184.5t-30 256.5zM256 563q0 -108 20.5 -191t67 -139.5t120.5 -85 t181 -28.5t181 28.5t120.5 85t67 139.5t20.5 191q0 109 -20.5 192.5t-67 140t-120.5 85.5t-181 29t-181 -29t-120.5 -85.5t-67 -140t-20.5 -192.5zM485 1249l310 320h190l-352 -320h-148z" />
<glyph unicode="&#xf4;" horiz-adv-x="1292" d="M100 567q0 146 30 256.5t95.5 184.5t169 111.5t250.5 37.5t250.5 -37.5t169.5 -111.5t96.5 -184.5t30.5 -256.5t-30.5 -256.5t-96.5 -184.5t-169.5 -111.5t-250.5 -37.5t-250.5 37.5t-169 111.5t-95.5 184.5t-30 256.5zM244 1249l311 320h174l311 -320h-155l-246 219 l-242 -219h-153zM256 563q0 -108 20.5 -191t67 -139.5t120.5 -85t181 -28.5t181 28.5t120.5 85t67 139.5t20.5 191q0 109 -20.5 192.5t-67 140t-120.5 85.5t-181 29t-181 -29t-120.5 -85.5t-67 -140t-20.5 -192.5z" />
<glyph unicode="&#xf5;" horiz-adv-x="1292" d="M100 567q0 146 30 256.5t95.5 184.5t169 111.5t250.5 37.5t250.5 -37.5t169.5 -111.5t96.5 -184.5t30.5 -256.5t-30.5 -256.5t-96.5 -184.5t-169.5 -111.5t-250.5 -37.5t-250.5 37.5t-169 111.5t-95.5 184.5t-30 256.5zM250 1331q25 31 55 59t62 48.5t65.5 32.5t67.5 12 q52 0 88.5 -15.5t67.5 -34t60.5 -34t67.5 -15.5q20 0 40.5 9t40.5 24.5t40 35.5t39 42l94 -76q-26 -32 -55 -62t-61 -53t-66 -37t-69 -14q-46 0 -82.5 16t-69 34.5t-64.5 34.5t-69 16t-78.5 -27t-75.5 -72zM256 563q0 -108 20.5 -191t67 -139.5t120.5 -85t181 -28.5 t181 28.5t120.5 85t67 139.5t20.5 191q0 109 -20.5 192.5t-67 140t-120.5 85.5t-181 29t-181 -29t-120.5 -85.5t-67 -140t-20.5 -192.5z" />
<glyph unicode="&#xf6;" horiz-adv-x="1292" d="M100 567q0 146 30 256.5t95.5 184.5t169 111.5t250.5 37.5t250.5 -37.5t169.5 -111.5t96.5 -184.5t30.5 -256.5t-30.5 -256.5t-96.5 -184.5t-169.5 -111.5t-250.5 -37.5t-250.5 37.5t-169 111.5t-95.5 184.5t-30 256.5zM256 563q0 -108 20.5 -191t67 -139.5t120.5 -85 t181 -28.5t181 28.5t120.5 85t67 139.5t20.5 191q0 109 -20.5 192.5t-67 140t-120.5 85.5t-181 29t-181 -29t-120.5 -85.5t-67 -140t-20.5 -192.5zM356 1253v209h144v-209h-144zM789 1253v209h141v-209h-141z" />
<glyph unicode="&#xf7;" horiz-adv-x="1425" d="M217 649v148h989v-148h-989zM618 221v191h189v-191h-189zM618 1034v191h189v-191h-189z" />
<glyph unicode="&#xf8;" horiz-adv-x="1292" d="M100 567q0 290 124.5 440t420.5 150q73 0 136.5 -9t114.5 -28l58 99h144l-90 -157q96 -71 140 -195.5t44 -299.5q0 -290 -126 -440t-421 -150q-72 0 -134.5 9t-113.5 27l-59 -99h-145l92 156q-98 71 -141.5 196.5t-43.5 300.5zM254 563q0 -123 27 -214.5t87 -147.5 l454 784q-37 13 -81.5 20t-95.5 7q-216 0 -303.5 -115t-87.5 -334zM465 143q37 -14 82 -21t98 -7q214 0 303.5 115.5t89.5 332.5q0 125 -28 217t-90 148z" />
<glyph unicode="&#xf9;" horiz-adv-x="1257" d="M150 465v665h153v-669q0 -47 1.5 -90t10.5 -81t29 -69t56.5 -53.5t93 -34.5t139.5 -12q82 0 138 12t91.5 34.5t55 54t28 70.5t9.5 83.5t1 93.5v661h152v-659q0 -77 -5 -143t-21.5 -120.5t-47.5 -97t-84 -71.5t-130.5 -44t-186.5 -15q-110 0 -188 15t-132 44t-86 71 t-49 95.5t-22.5 119t-5.5 140.5zM285 1569h191l309 -320h-148z" />
<glyph unicode="&#xfa;" horiz-adv-x="1257" d="M150 465v665h153v-669q0 -47 1.5 -90t10.5 -81t29 -69t56.5 -53.5t93 -34.5t139.5 -12q82 0 138 12t91.5 34.5t55 54t28 70.5t9.5 83.5t1 93.5v661h152v-659q0 -77 -5 -143t-21.5 -120.5t-47.5 -97t-84 -71.5t-130.5 -44t-186.5 -15q-110 0 -188 15t-132 44t-86 71 t-49 95.5t-22.5 119t-5.5 140.5zM469 1249l310 320h190l-352 -320h-148z" />
<glyph unicode="&#xfb;" horiz-adv-x="1257" d="M150 465v665h153v-669q0 -47 1.5 -90t10.5 -81t29 -69t56.5 -53.5t93 -34.5t139.5 -12q82 0 138 12t91.5 34.5t55 54t28 70.5t9.5 83.5t1 93.5v661h152v-659q0 -77 -5 -143t-21.5 -120.5t-47.5 -97t-84 -71.5t-130.5 -44t-186.5 -15q-110 0 -188 15t-132 44t-86 71 t-49 95.5t-22.5 119t-5.5 140.5zM228 1249l311 320h174l311 -320h-155l-246 219l-242 -219h-153z" />
<glyph unicode="&#xfc;" horiz-adv-x="1257" d="M150 465v665h153v-669q0 -47 1.5 -90t10.5 -81t29 -69t56.5 -53.5t93 -34.5t139.5 -12q82 0 138 12t91.5 34.5t55 54t28 70.5t9.5 83.5t1 93.5v661h152v-659q0 -77 -5 -143t-21.5 -120.5t-47.5 -97t-84 -71.5t-130.5 -44t-186.5 -15q-110 0 -188 15t-132 44t-86 71 t-49 95.5t-22.5 119t-5.5 140.5zM340 1253v209h144v-209h-144zM773 1253v209h141v-209h-141z" />
<glyph unicode="&#xfd;" horiz-adv-x="1085" d="M23 1130h163l418 -1087l-127 -66zM160 -213h88q39 0 67 6t48.5 19.5t34.5 36t26 55.5l47 121l31 47l401 1058h160l-488 -1243q-23 -60 -50.5 -103.5t-65 -71.5t-86.5 -41t-115 -13h-20h-28q-15 0 -29 0.5t-21 1.5v127zM388 1249l310 320h190l-352 -320h-148z" />
<glyph unicode="&#xfe;" horiz-adv-x="1325" d="M156 -338v1927h155v-585q46 79 148.5 116t281.5 37q141 0 234.5 -42t149 -119t78 -186t22.5 -243q0 -132 -23 -240t-79 -185.5t-150.5 -119.5t-237.5 -42q-92 0 -161.5 9t-120.5 27.5t-85.5 47.5t-56.5 69v-471h-155zM311 563q0 -125 22 -209.5t70 -135.5t124 -73 t184 -22q104 0 173 30t109.5 86.5t57 138t16.5 185.5t-16 187t-56.5 140.5t-109 88.5t-174.5 31q-107 0 -183 -22.5t-124 -75t-70.5 -138t-22.5 -211.5z" />
<glyph unicode="&#xff;" horiz-adv-x="1085" d="M23 1130h163l418 -1087l-127 -66zM160 -213h88q39 0 67 6t48.5 19.5t34.5 36t26 55.5l47 121l31 47l401 1058h160l-488 -1243q-23 -60 -50.5 -103.5t-65 -71.5t-86.5 -41t-115 -13h-20h-28q-15 0 -29 0.5t-21 1.5v127zM259 1253v209h144v-209h-144zM692 1253v209h141 v-209h-141z" />
<glyph unicode="&#x152;" horiz-adv-x="2580" d="M90 760q0 202 48 349.5t144 243.5t238.5 142.5t331.5 46.5q190 0 328 -48.5t228 -146t133.5 -244.5t43.5 -343q0 -197 -43.5 -344t-133.5 -245t-228 -147t-328 -49q-189 0 -331.5 46.5t-238.5 142.5t-144 244t-48 352zM252 758q0 -155 33.5 -273t106 -198t186 -121 t274.5 -41t275.5 41t187.5 121t107 198t34 273q0 153 -34 271t-107 198t-187.5 121t-275.5 41t-274.5 -41t-186 -121t-106 -198t-33.5 -271zM1466 0v1518h988v-154h-842v-502h821v-147h-821v-568h850v-147h-996z" />
<glyph unicode="&#x153;" horiz-adv-x="2146" d="M100 567q0 146 29.5 256.5t94.5 184.5t168.5 111.5t252.5 37.5q148 0 250 -38.5t165 -113.5t90.5 -185t27.5 -253t-27.5 -253t-90.5 -185t-165 -113.5t-250 -38.5q-149 0 -252.5 37.5t-168.5 111.5t-94.5 184.5t-29.5 256.5zM256 563q0 -108 20.5 -191t67 -139.5 t120.5 -85t181 -28.5t181 28.5t120.5 85t67 139.5t20.5 191q0 109 -20.5 192.5t-67 140t-120.5 85.5t-181 29t-181 -29t-120.5 -85.5t-67 -140t-20.5 -192.5zM1051 567q0 81 7.5 156t28 141t57 119.5t94 92.5t139.5 60t194 21q116 0 196 -24.5t132 -68.5t80.5 -104.5 t41.5 -132t14.5 -151.5t0.5 -162h-936l4 139h784q-3 50 -7 96.5t-15 87.5t-31.5 74t-55.5 57t-86.5 37t-125.5 13q-122 0 -197 -33.5t-116 -94t-55.5 -144t-14.5 -183.5q0 -98 14 -180.5t56.5 -142.5t119.5 -93.5t203 -33.5q70 0 123 8.5t95.5 24t77.5 36.5t69 45l86 -108 q-43 -32 -89 -58.5t-100 -45t-118 -28.5t-144 -10q-116 0 -200 21.5t-142.5 60t-94.5 92.5t-55.5 119.5t-26.5 140.5t-7 156z" />
<glyph unicode="&#x178;" horiz-adv-x="1434" d="M27 1518h176l516 -783l520 783h166l-623 -947h-133zM428 1611v209h144v-209h-144zM637 0v670h160v-670h-160zM861 1611v209h141v-209h-141z" />
<glyph unicode="&#x2c6;" horiz-adv-x="1208" d="M205 1249l311 320h174l311 -320h-155l-246 219l-242 -219h-153z" />
<glyph unicode="&#x2dc;" horiz-adv-x="1208" d="M211 1331q25 31 55 59t62 48.5t65.5 32.5t67.5 12q52 0 88.5 -15.5t67.5 -34t60.5 -34t67.5 -15.5q20 0 40.5 9t40.5 24.5t40 35.5t39 42l94 -76q-26 -32 -55 -62t-61 -53t-66 -37t-69 -14q-46 0 -82.5 16t-69 34.5t-64.5 34.5t-69 16t-78.5 -27t-75.5 -72z" />
<glyph unicode="&#x2000;" horiz-adv-x="963" />
<glyph unicode="&#x2001;" horiz-adv-x="1927" />
<glyph unicode="&#x2002;" horiz-adv-x="963" />
<glyph unicode="&#x2003;" horiz-adv-x="1927" />
<glyph unicode="&#x2004;" horiz-adv-x="642" />
<glyph unicode="&#x2005;" horiz-adv-x="481" />
<glyph unicode="&#x2006;" horiz-adv-x="321" />
<glyph unicode="&#x2007;" horiz-adv-x="321" />
<glyph unicode="&#x2008;" horiz-adv-x="240" />
<glyph unicode="&#x2009;" horiz-adv-x="385" />
<glyph unicode="&#x200a;" horiz-adv-x="107" />
<glyph unicode="&#x2010;" horiz-adv-x="926" d="M106 557v145h711v-145h-711z" />
<glyph unicode="&#x2011;" horiz-adv-x="926" d="M106 557v145h711v-145h-711z" />
<glyph unicode="&#x2012;" horiz-adv-x="926" d="M106 557v145h711v-145h-711z" />
<glyph unicode="&#x2013;" horiz-adv-x="1436" d="M106 557v145h1223v-145h-1223z" />
<glyph unicode="&#x2014;" horiz-adv-x="1886" d="M106 557v145h1676v-145h-1676z" />
<glyph unicode="&#x2018;" horiz-adv-x="489" d="M141 1036v181q0 64 7.5 110t26.5 81t52.5 62t85.5 54l45 -84q-34 -18 -55.5 -35t-34 -36t-17.5 -43t-5 -56h100v-234h-205z" />
<glyph unicode="&#x2019;" horiz-adv-x="489" d="M131 1114q34 18 55.5 34.5t34.5 35.5t18 42.5t5 55.5h-103v236h205v-179q0 -65 -7 -111.5t-26 -82t-52 -62.5t-85 -53z" />
<glyph unicode="&#x201a;" horiz-adv-x="489" d="M131 -135q34 18 55.5 34.5t34.5 35.5t18 43t5 57h-103v233h205v-180q0 -61 -7 -106.5t-26 -81.5t-52 -64.5t-85 -54.5z" />
<glyph unicode="&#x201c;" horiz-adv-x="856" d="M141 1038v176q0 63 7.5 108.5t26.5 80t52 62t84 53.5l45 -84q-34 -18 -55.5 -34t-34 -34.5t-17.5 -42t-5 -55.5h100v-230h-203zM514 1038v176q0 63 7 108.5t25.5 80t51.5 62t84 53.5l45 -84q-34 -18 -56 -34t-34.5 -34.5t-17.5 -42t-5 -55.5h101v-230h-201z" />
<glyph unicode="&#x201d;" horiz-adv-x="856" d="M131 1120q33 18 55 34.5t34.5 35t18 42t5.5 56.5h-103v230h203v-177q0 -64 -7 -109.5t-26 -79.5t-52 -61t-85 -53zM500 1120q34 18 56 34.5t35 35t18 42t5 56.5h-100v230h201v-177q0 -64 -7.5 -109.5t-26.5 -79.5t-52 -61t-84 -53z" />
<glyph unicode="&#x201e;" horiz-adv-x="856" d="M131 -133q33 18 55 34t34.5 34.5t18 42.5t5.5 57h-103v229h203v-176q0 -61 -7 -106.5t-26 -80.5t-52 -63t-85 -53zM500 -133q34 18 56 34t35 34.5t18 42.5t5 57h-100v229h201v-176q0 -61 -7.5 -106.5t-26.5 -80.5t-52 -63t-84 -53z" />
<glyph unicode="&#x2022;" horiz-adv-x="700" d="M205 461v323h291v-323h-291z" />
<glyph unicode="&#x2026;" horiz-adv-x="1399" d="M141 0v227h205v-227h-205zM596 0v227h205v-227h-205zM1053 0v227h204v-227h-204z" />
<glyph unicode="&#x202f;" horiz-adv-x="385" />
<glyph unicode="&#x2039;" horiz-adv-x="866" d="M182 563l310 567h141l-299 -567l299 -563h-141z" />
<glyph unicode="&#x203a;" horiz-adv-x="866" d="M231 0l301 565l-301 565h144l309 -565l-309 -565h-144z" />
<glyph unicode="&#x205f;" horiz-adv-x="481" />
<glyph unicode="&#x20ac;" horiz-adv-x="1358" d="M80 545v137h926v-137h-926zM80 854v137h926v-137h-926zM305 764q0 185 28 329.5t92.5 244.5t170.5 152t262 52q64 0 115.5 -5t94.5 -14.5t80.5 -24.5t74.5 -34l-72 -133q-60 32 -128.5 49t-162.5 17q-124 0 -202.5 -44.5t-123.5 -126.5t-62 -198t-17 -260 q0 -155 17 -275.5t62 -203.5t123.5 -126.5t200.5 -43.5q42 0 80 3t74 11t71 22t70 35l78 -122q-41 -26 -82.5 -43.5t-87 -28.5t-97 -16t-112.5 -5q-159 0 -264.5 53.5t-168 155t-88.5 248t-26 332.5z" />
<glyph unicode="&#x2122;" horiz-adv-x="2222" d="M133 1403v115h766v-115h-324v-813h-120v813h-322zM997 590v928h138l321 -766l322 766h139v-928h-121v710l-297 -710h-88l-299 710v-710h-115z" />
<glyph unicode="&#x25fc;" horiz-adv-x="1130" d="M0 0v1130h1130v-1130h-1130z" />
</font>
</defs>
</svg>
