<?xml version="1.0" standalone="no"?>
<!DOCTYPE svg PUBLIC "-//W3C//DTD SVG 1.1//EN" "http://www.w3.org/Graphics/SVG/1.1/DTD/svg11.dtd" >
<svg xmlns="http://www.w3.org/2000/svg">
<metadata></metadata>
<defs>
<font id="antennaregular" horiz-adv-x="1208" >
<font-face units-per-em="2048" ascent="1638" descent="-410" />
<missing-glyph horiz-adv-x="494" />
<glyph unicode="&#xfb01;" horiz-adv-x="1180" d="M68 1026v94h211v133q0 177 74.5 256.5t230.5 79.5h114v-94h-106q-106 0 -157.5 -57.5t-51.5 -184.5v-133h315v-94h-315v-1026h-104v1026h-211zM901 0v1120h105v-1120h-105zM901 1284v199h105v-199h-105z" />
<glyph unicode="&#xfb02;" horiz-adv-x="1294" d="M68 1026v94h211v133q0 177 74.5 256.5t230.5 79.5h114v-94h-106q-106 0 -157.5 -57.5t-51.5 -184.5v-133h315v-94h-315v-1026h-104v1026h-211zM901 244v1345h105v-1337q0 -77 12 -105.5t40.5 -40.5t82.5 -12h51v-92q-18 -4 -80 -4q-79 0 -124.5 23.5t-66 71.5t-20.5 151z " />
<glyph unicode="&#xfb03;" horiz-adv-x="1802" d="M68 1026v94h211v133q0 177 74.5 256.5t230.5 79.5h114v-94h-106q-106 0 -157.5 -57.5t-51.5 -184.5v-133h518v133q0 177 76 256.5t229 79.5h115v-94h-107q-106 0 -157 -57.5t-51 -184.5v-133h315v-94h-315v-1026h-105v1026h-518v-1026h-104v1026h-211zM1524 1284v199h106 v-199h-106zM1526 0v1120h102v-1120h-102z" />
<glyph unicode="&#xfb04;" horiz-adv-x="1919" d="M68 1026v94h211v133q0 177 74.5 256.5t230.5 79.5h114v-94h-106q-106 0 -157.5 -57.5t-51.5 -184.5v-133h518v133q0 177 76 256.5t229 79.5h115v-94h-107q-106 0 -157 -57.5t-51 -184.5v-133h315v-94h-315v-1026h-105v1026h-518v-1026h-104v1026h-211zM1526 244v1345h102 v-1337q0 -77 12 -105.5t40.5 -40.5t82.5 -12h52v-92q-20 -4 -80 -4q-78 0 -123.5 22.5t-65.5 71.5t-20 152z" />
<glyph horiz-adv-x="2048" />
<glyph horiz-adv-x="2048" />
<glyph unicode="&#xd;" horiz-adv-x="494" />
<glyph unicode=" "  horiz-adv-x="494" />
<glyph unicode="&#x09;" horiz-adv-x="494" />
<glyph unicode="&#xa0;" horiz-adv-x="494" />
<glyph unicode="!" horiz-adv-x="707" d="M276 0v178h154v-178h-154zM295 1518h117l-13 -1121h-90z" />
<glyph unicode="&#x22;" horiz-adv-x="920" d="M209 1518h106l-10 -545h-84zM604 1518h107l-11 -545h-86z" />
<glyph unicode="#" horiz-adv-x="1466" d="M141 485v97h273l69 368h-342v97h363l90 471h102l-92 -471h369l92 471h100l-90 -471h252v-97h-272l-70 -368h342v-97h-360l-95 -485h-100l92 485h-366l-95 -485h-102l94 485h-254zM510 578h377l74 376h-379z" />
<glyph unicode="$" horiz-adv-x="1346" d="M154 143l53 80q94 -62 194.5 -94.5t235.5 -36.5v670q-242 52 -330 139.5t-88 239.5q0 190 101 281t313 97v128h98v-129q101 -3 200.5 -31.5t168.5 -77.5l-53 -80q-57 41 -144 66t-176 28v-586l106 -27q191 -51 271 -142.5t80 -243.5q0 -199 -111 -306t-342 -117v-194h-98 v193q-151 3 -264.5 38.5t-214.5 104.5zM322 1145q0 -101 54 -163.5t172 -98.5l89 -24v565q-167 -7 -241 -73.5t-74 -205.5zM727 93q183 10 268.5 91t85.5 236q0 115 -57 183.5t-181 105.5l-116 32v-648z" />
<glyph unicode="%" horiz-adv-x="2185" d="M98 1069q0 233 97.5 353t287.5 120q189 0 286 -120.5t97 -352.5q0 -234 -97 -352.5t-286 -118.5t-287 118t-98 353zM197 1069q0 -383 286 -383q285 0 285 383t-285 383q-286 0 -286 -383zM618 0l844 1520h103l-846 -1520h-101zM1319 451q0 232 96.5 352.5t286.5 120.5 t286.5 -120.5t96.5 -352.5q0 -234 -96.5 -354t-286.5 -120q-189 0 -286 120t-97 354zM1417 451q0 -383 285 -383t285 383t-285 383t-285 -383z" />
<glyph unicode="&#x26;" horiz-adv-x="1577" d="M104 397q0 132 73 242.5t253 224.5q-84 209 -84 385q0 293 291 293q139 0 204.5 -69.5t65.5 -223.5q0 -82 -35 -146t-95.5 -119.5t-221.5 -157.5q159 -344 451 -573q61 86 94.5 156.5t70.5 185.5t76 269l94 -22q-64 -254 -123 -400t-131 -241l-3 -3q86 -55 162.5 -78.5 t187.5 -23.5h24v-96h-26q-134 0 -225.5 29.5t-190.5 94.5q-85 -76 -190.5 -111.5t-243.5 -35.5q-172 0 -277 43.5t-153 132.5t-48 244zM207 397q0 -132 37.5 -197.5t119.5 -97.5t218 -32q112 0 198 26.5t156 85.5q-297 236 -464 586l-7 14l-86 -64q-172 -141 -172 -321z M446 1249q0 -155 75 -343q133 88 183 134.5t78.5 97t28.5 111.5q0 102 -38.5 151.5t-135.5 49.5q-191 0 -191 -201z" />
<glyph unicode="'" horiz-adv-x="526" d="M209 1520h106l-10 -547h-84z" />
<glyph unicode="(" horiz-adv-x="948" d="M244 612q0 199 56.5 386t155.5 343.5t228 264.5l74 -62q-199 -176 -304.5 -420t-105.5 -512q0 -274 110.5 -517.5t299.5 -403.5l-74 -62q-130 107 -229 260.5t-155 337t-56 385.5z" />
<glyph unicode=")" horiz-adv-x="948" d="M193 -309q196 173 301.5 413.5t105.5 507.5q0 191 -53 367t-143.5 319.5t-210.5 245.5l71 62q131 -110 230.5 -266t155 -340.5t55.5 -387.5q0 -198 -56 -381.5t-157 -340.5t-228 -261z" />
<glyph unicode="*" horiz-adv-x="1157" d="M147 846l359 196l-359 201l43 78l355 -213l-10 412h88l-11 -412l355 213l43 -78l-359 -201l359 -196l-43 -78l-355 211l11 -410h-88l10 410l-355 -211z" />
<glyph unicode="+" horiz-adv-x="1409" d="M225 674v98h426v426h105v-426h426v-98h-426v-426h-105v426h-426z" />
<glyph unicode="," horiz-adv-x="457" d="M133 -160q57 32 77.5 65t20.5 95h-79v180h153v-143q0 -108 -29.5 -161.5t-107.5 -94.5z" />
<glyph unicode="-" horiz-adv-x="942" d="M117 567v97h710v-97h-710z" />
<glyph unicode="." horiz-adv-x="457" d="M152 0v180h153v-180h-153z" />
<glyph unicode="/" horiz-adv-x="963" d="M0 0l852 1518h111l-852 -1518h-111z" />
<glyph unicode="0" horiz-adv-x="1466" d="M176 762q0 297 59.5 462.5t182 241.5t315.5 76q192 0 315 -76.5t183.5 -240.5t60.5 -463q0 -300 -61 -465.5t-184 -242.5t-314 -77t-314.5 77t-183 244.5t-59.5 463.5zM283 762q0 -269 48 -412.5t147.5 -209.5t254.5 -66q157 0 257 67t148 212t48 409t-47.5 406.5 t-147 209t-258.5 66.5q-156 0 -255.5 -65.5t-147 -208t-47.5 -408.5z" />
<glyph unicode="1" horiz-adv-x="737" d="M80 1419v99h401v-1518h-102v1419h-299z" />
<glyph unicode="2" horiz-adv-x="1171" d="M82 0v90l514 541q151 157 210.5 238t85.5 154.5t26 162.5q0 138 -82.5 199t-260.5 61q-242 0 -409 -88l-47 86q189 98 463 98q219 0 329.5 -83t110.5 -267q0 -100 -30.5 -187t-95 -178.5t-218.5 -251.5l-459 -481h830v-94h-967z" />
<glyph unicode="3" horiz-adv-x="1229" d="M57 109l54 84q112 -61 223 -91t246 -30q216 0 306.5 82.5t90.5 279.5q0 140 -43 212t-139 106t-258 34h-191v95h186q221 0 311.5 67.5t90.5 231.5q0 146 -82.5 207t-273.5 61q-109 0 -220.5 -27t-203.5 -82l-58 80q205 123 488 123q244 0 348 -82.5t104 -267.5 q0 -151 -56.5 -236t-168.5 -116q140 -30 204 -126t64 -284q0 -164 -51 -263t-157 -145.5t-289 -46.5q-152 0 -277 33t-248 101z" />
<glyph unicode="4" horiz-adv-x="1346" d="M121 408v88l684 1022h117l-684 -1018h635l20 526h80v-526h295v-92h-295v-408h-101v408h-751z" />
<glyph unicode="5" horiz-adv-x="1280" d="M131 109l53 84q132 -69 234.5 -95t208.5 -26q233 0 337.5 102t104.5 305q0 211 -100.5 312.5t-315.5 101.5q-119 0 -204 -18.5t-179 -65.5l-90 27l39 682h848v-95h-756l-28 -514q59 35 163.5 56.5t223.5 21.5q263 0 383.5 -126t120.5 -380q0 -177 -59.5 -288t-175 -163.5 t-310.5 -52.5q-129 0 -247 30t-251 102z" />
<glyph unicode="6" horiz-adv-x="1386" d="M168 600q0 353 79.5 546.5t259.5 282.5t499 89h38v-95h-40q-244 0 -396.5 -57.5t-230 -181t-98.5 -353.5q121 187 473 187q255 0 377 -122.5t122 -395.5q0 -272 -126 -397.5t-394 -125.5q-300 0 -431.5 149.5t-131.5 473.5zM272 557q0 -248 110.5 -367.5t350.5 -119.5 q211 0 312.5 100.5t101.5 327.5q0 226 -102.5 327t-311.5 101q-212 0 -336.5 -97t-124.5 -272z" />
<glyph unicode="7" horiz-adv-x="1059" d="M53 1423v95h979v-86l-631 -1432h-106l627 1423h-869z" />
<glyph unicode="8" horiz-adv-x="1397" d="M150 424q0 344 284 414q-233 61 -233 336q0 191 122 279.5t377 88.5q256 0 376 -89t120 -279q0 -277 -231 -336q282 -76 282 -414q0 -449 -547 -449q-277 0 -413.5 111t-136.5 338zM254 428q0 -182 108.5 -271t337.5 -89q224 0 333.5 89t109.5 271q0 183 -109.5 273 t-333.5 90q-229 0 -337.5 -90t-108.5 -273zM303 1165q0 -151 95.5 -218.5t301.5 -67.5q205 0 299.5 67.5t94.5 218.5q0 149 -95 218t-299 69q-205 0 -301 -68.5t-96 -218.5z" />
<glyph unicode="9" horiz-adv-x="1386" d="M137 1020q0 272 126 397t394 125q299 0 431.5 -148.5t132.5 -473.5q0 -361 -82 -553t-262.5 -279.5t-493.5 -87.5h-41v94h43q241 0 391 56t229.5 178.5t102.5 359.5q-122 -186 -471 -186q-257 0 -378.5 123t-121.5 395zM240 1020q0 -223 102 -325.5t313 -102.5 q212 0 336.5 98t124.5 271q0 250 -110 368.5t-349 118.5q-212 0 -314.5 -100t-102.5 -328z" />
<glyph unicode=":" horiz-adv-x="498" d="M172 0v178h154v-178h-154zM172 944v176h154v-176h-154z" />
<glyph unicode=";" horiz-adv-x="498" d="M154 -160q59 34 78.5 67.5t19.5 92.5h-80v178h154v-141q0 -109 -26.5 -160t-111.5 -96zM172 944v176h154v-176h-154z" />
<glyph unicode="&#x3c;" horiz-adv-x="1409" d="M209 666v84l909 456v-96l-807 -401l807 -402v-100z" />
<glyph unicode="=" horiz-adv-x="1409" d="M238 463v96h933v-96h-933zM238 885v96h933v-96h-933z" />
<glyph unicode="&#x3e;" horiz-adv-x="1409" d="M291 207v100l807 400l-807 401v98l909 -456v-84z" />
<glyph unicode="?" horiz-adv-x="1335" d="M182 1427q91 53 227 84t273 31q173 0 276.5 -34.5t150 -105t46.5 -206.5q0 -83 -25 -143.5t-79 -113t-183 -130.5q-85 -53 -123 -90t-55 -84.5t-17 -127.5q0 -50 5 -116h-103q-6 69 -6 124q0 129 47.5 204.5t176.5 152.5q134 83 177 123.5t61 86t18 108.5 q0 104 -36.5 155t-117.5 76t-217 25q-122 0 -238.5 -29t-210.5 -80zM549 0v170h153v-170h-153z" />
<glyph unicode="@" horiz-adv-x="2236" d="M201 600q0 467 233 705.5t684 238.5q457 0 690.5 -240t233.5 -704q0 -219 -30 -326t-98.5 -154.5t-197.5 -47.5q-91 0 -145 23t-80.5 65t-28.5 123q-48 -108 -143.5 -157.5t-265.5 -49.5q-441 0 -441 532q0 531 443 531q166 0 261 -47t136 -154l21 197l73 -5v-794 q0 -107 46 -150t139 -43t142 39t70 130t21 288q0 432 -213 651t-633 219q-416 0 -627.5 -218.5t-211.5 -651.5q0 -430 213.5 -647t633.5 -217q330 0 576 121l35 -64q-260 -131 -611 -131q-459 0 -692 234t-233 704zM711 608q0 -228 88 -337t266 -109q206 0 294.5 104.5 t88.5 341.5q0 233 -87 336t-296 103q-178 0 -266 -107t-88 -332z" />
<glyph unicode="A" horiz-adv-x="1444" d="M61 0l609 1528h104l608 -1528h-108l-154 385h-801l-151 -385h-107zM356 483h727l-362 912z" />
<glyph unicode="B" horiz-adv-x="1409" d="M186 0v1518h645q455 0 455 -361q0 -139 -57.5 -230.5t-167.5 -125.5q262 -64 262 -379q0 -218 -123 -320t-387 -102h-627zM293 98h528q202 0 299 78.5t97 251.5q0 163 -96.5 240t-305.5 77h-522v-647zM293 844h541q172 0 258 72.5t86 230.5q0 139 -86.5 205.5 t-257.5 66.5h-541v-575z" />
<glyph unicode="C" horiz-adv-x="1454" d="M96 760q0 383 187.5 582.5t554.5 199.5q148 0 280.5 -44.5t231.5 -135.5l-74 -76q-87 78 -200 117t-238 39q-311 0 -472 -171t-161 -511q0 -682 633 -682q144 0 251 38t197 122l74 -74q-105 -99 -232 -143t-294 -44q-738 0 -738 783z" />
<glyph unicode="D" horiz-adv-x="1520" d="M186 0v1518h482q296 0 454.5 -71.5t230.5 -232t72 -454.5q0 -282 -78.5 -446t-246.5 -239t-465 -75h-449zM295 98h344q256 0 401 65t211 205.5t66 391.5q0 260 -60.5 397.5t-197.5 198.5t-391 61h-373v-1319z" />
<glyph unicode="E" horiz-adv-x="1278" d="M186 0v1518h963v-101h-854v-573h833v-101h-833v-645h862v-98h-971z" />
<glyph unicode="F" horiz-adv-x="1198" d="M186 0v1518h938v-101h-829v-579h811v-101h-811v-737h-109z" />
<glyph unicode="G" horiz-adv-x="1579" d="M96 760q0 394 184.5 588t557.5 194q337 0 532 -178l-74 -78q-180 156 -458 156q-321 0 -478 -170.5t-157 -511.5q0 -358 153.5 -522t479.5 -164q199 0 314.5 55.5t167.5 173.5t52 348v56h-541v100h648v-141q0 -276 -66.5 -417.5t-209 -206.5t-367.5 -65 q-382 0 -560 191.5t-178 591.5z" />
<glyph unicode="H" horiz-adv-x="1567" d="M186 0v1518h109v-670h979v670h106v-1518h-106v748h-979v-748h-109z" />
<glyph unicode="I" horiz-adv-x="506" d="M201 0v1518h104v-1518h-104z" />
<glyph unicode="J" horiz-adv-x="784" d="M68 0v98h122q163 0 237.5 73t74.5 243v1104h106v-1106q0 -215 -99 -314.5t-310 -99.5h-66z" />
<glyph unicode="K" horiz-adv-x="1407" d="M186 0v1518h107v-884l827 884h127l-555 -593l629 -925h-121l-578 850l-329 -352v-498h-107z" />
<glyph unicode="L" horiz-adv-x="1184" d="M186 0v1518h109v-1420h825v-98h-934z" />
<glyph unicode="M" horiz-adv-x="1833" d="M186 0v1518h138l591 -1375l596 1375h136v-1518h-107v1341l-579 -1341h-93l-579 1341v-1341h-103z" />
<glyph unicode="N" horiz-adv-x="1569" d="M186 0v1518h121l973 -1346v1346h102v-1518h-98l-995 1374v-1374h-103z" />
<glyph unicode="O" horiz-adv-x="1696" d="M96 760q0 389 188.5 585.5t561.5 196.5q753 0 753 -782q0 -389 -187.5 -587t-565.5 -198q-375 0 -562.5 198.5t-187.5 586.5zM205 760q0 -684 641 -684q647 0 647 684q0 336 -161 509t-486 173q-641 0 -641 -682z" />
<glyph unicode="P" horiz-adv-x="1413" d="M186 0v1518h645q250 0 368 -104.5t118 -330.5q0 -236 -122.5 -346t-358.5 -110h-543v-627h-107zM293 725h545q190 0 281 87t91 269q0 180 -89 259t-292 79h-536v-694z" />
<glyph unicode="Q" horiz-adv-x="1696" d="M96 760q0 399 184.5 590.5t565.5 191.5q382 0 567.5 -191.5t185.5 -590.5q0 -392 -179.5 -583t-555.5 -195l-2 -55q0 -81 22 -120.5t70.5 -56t143.5 -16.5h147v-94l-71 -2h-76q-125 0 -196.5 26t-104.5 84t-33 169l2 68q-340 17 -505 207t-165 568zM205 760 q0 -351 157 -517.5t484 -166.5q329 0 488 167.5t159 516.5q0 347 -159 514.5t-488 167.5q-327 0 -484 -166.5t-157 -515.5z" />
<glyph unicode="R" horiz-adv-x="1438" d="M186 0v1518h633q249 0 368.5 -105t119.5 -321q0 -199 -100.5 -307t-313.5 -126l389 -659h-115l-388 657h-486v-657h-107zM293 756h530q198 0 286.5 81t88.5 250t-89 250.5t-292 81.5h-524v-663z" />
<glyph unicode="S" horiz-adv-x="1415" d="M96 147l56 82q126 -79 256 -115t286 -36q248 0 366 81.5t118 254.5q0 92 -35 147.5t-99 89.5t-152.5 53.5t-195.5 40.5q-232 43 -334 91t-148 124.5t-46 192.5q0 198 128.5 293.5t395.5 95.5q309 0 502 -131l-57 -86q-177 119 -445 119q-212 0 -315 -68.5t-103 -220.5 q0 -87 36.5 -142t113.5 -91t297 -80q121 -23 224 -47.5t178 -68.5t117 -117t42 -193q0 -224 -148.5 -330t-437.5 -106q-180 0 -323.5 41t-276.5 126z" />
<glyph unicode="T" horiz-adv-x="1399" d="M63 1417v101h1274v-101h-583v-1417h-107v1417h-584z" />
<glyph unicode="U" horiz-adv-x="1571" d="M176 537v981h109v-973q0 -172 51.5 -270.5t161 -148.5t284.5 -50q172 0 284.5 47.5t168 149t55.5 272.5v973h105v-981q0 -296 -149.5 -429t-463.5 -133q-204 0 -337.5 56t-201 176t-67.5 330z" />
<glyph unicode="V" horiz-adv-x="1444" d="M63 1518h111l551 -1391l549 1391h108l-608 -1528h-104z" />
<glyph unicode="W" horiz-adv-x="2220" d="M82 1518h111l434 -1342l442 1342h88l440 -1342l437 1342h104l-498 -1528h-88l-442 1347l-440 -1347h-90z" />
<glyph unicode="X" horiz-adv-x="1407" d="M90 0l554 793l-507 725h117l454 -648l449 648h117l-510 -727l555 -791h-119l-500 713l-493 -713h-117z" />
<glyph unicode="Y" horiz-adv-x="1397" d="M35 1518h117l548 -813l549 813h113l-610 -905v-613h-107v609z" />
<glyph unicode="Z" horiz-adv-x="1346" d="M100 0v88l987 1329h-952v101h1082v-93l-986 -1327h1008v-98h-1139z" />
<glyph unicode="[" horiz-adv-x="913" d="M262 -338v1927h436v-94h-331v-1741h338v-92h-443z" />
<glyph unicode="\" horiz-adv-x="963" d="M0 1518h111l852 -1518h-111z" />
<glyph unicode="]" horiz-adv-x="913" d="M209 1495v94h442v-1927h-436v92h332v1741h-338z" />
<glyph unicode="^" d="M231 1263l310 301h125l311 -301h-113l-262 234l-262 -234h-109z" />
<glyph unicode="_" horiz-adv-x="928" d="M-76 -135h1080v-88h-1080v88z" />
<glyph unicode="`" d="M301 1544h131l313 -301h-104z" />
<glyph unicode="a" horiz-adv-x="1255" d="M102 307q0 157 69.5 243t225.5 124.5t461 38.5h74q-2 154 -32.5 218t-100 92t-195.5 28q-85 0 -175 -25.5t-165 -75.5l-55 82q77 51 185.5 83t215.5 32q166 0 257 -38.5t129 -128t38 -288.5v-450q0 -81 8.5 -105.5t31 -33.5t83.5 -9v-92q-8 -4 -41 -4q-94 0 -134 42 t-40 146q-58 -113 -164 -161t-291 -48q-196 0 -290.5 79.5t-94.5 250.5zM205 313q0 -131 71.5 -187t223.5 -56q229 0 330.5 108t101.5 342v96h-70q-267 0 -403.5 -26t-195 -87.5t-58.5 -189.5z" />
<glyph unicode="b" horiz-adv-x="1305" d="M166 2v1587h104v-647q48 109 151.5 157t295.5 48q247 0 362 -137.5t115 -446.5q0 -310 -116.5 -448t-364.5 -138q-186 0 -289 44.5t-162 158.5l-18 -184zM270 559q0 -182 42 -286.5t132.5 -151.5t255.5 -47q201 0 295.5 112t94.5 373q0 264 -92.5 377t-297.5 113 q-165 0 -256 -48.5t-132.5 -154t-41.5 -287.5z" />
<glyph unicode="c" horiz-adv-x="1139" d="M111 563q0 311 126.5 447.5t397.5 136.5q116 0 212.5 -35.5t174.5 -116.5l-74 -71q-125 125 -313 125q-218 0 -319 -115.5t-101 -372.5q0 -258 100 -372.5t320 -114.5q101 0 177 32t142 91l70 -68q-99 -87 -189 -119.5t-202 -32.5q-184 0 -299 62t-169 186.5t-54 337.5z " />
<glyph unicode="d" horiz-adv-x="1305" d="M111 565q0 308 116 445t365 137q190 0 292.5 -47t149.5 -154v643h105v-1585l-82 -6l-13 190q-55 -112 -160 -160t-294 -48q-247 0 -363 136.5t-116 448.5zM215 565q0 -263 93 -375t296 -112q165 0 256.5 49t132.5 154t41 284q0 183 -41.5 287t-132 150.5t-256.5 46.5 q-204 0 -296.5 -111.5t-92.5 -372.5z" />
<glyph unicode="e" horiz-adv-x="1198" d="M111 563q0 212 54 335t167.5 186t294.5 63q110 0 186.5 -24t127 -67t79.5 -106.5t42 -145t13 -261.5h-864q2 -182 46 -278.5t136 -145.5t242 -49q107 0 186.5 23t179.5 95l58 -75q-99 -73 -199.5 -104.5t-224.5 -31.5q-180 0 -296.5 58t-172 183t-55.5 345zM213 639h762 q-7 139 -19 191.5t-35 93.5t-60.5 69.5t-94.5 44t-141 15.5q-139 0 -225.5 -44t-131.5 -128.5t-55 -241.5z" />
<glyph unicode="f" horiz-adv-x="750" d="M68 1026v94h211v133q0 177 74.5 256.5t230.5 79.5h114v-94h-106q-106 0 -157.5 -57.5t-51.5 -184.5v-133h315v-94h-315v-1026h-104v1026h-211z" />
<glyph unicode="g" horiz-adv-x="1188" d="M70 -86q0 236 235 281q-80 28 -80 129q0 78 57 145q-147 87 -147 305q0 189 105.5 281t334.5 92q59 0 112 -6l9 -1l359 27v-88h-195q83 -45 120.5 -118.5t37.5 -186.5q0 -188 -107.5 -276t-335.5 -88q-114 0 -197 21l-10 2q-44 -47 -44 -99q0 -56 48 -75t203 -19 q222 0 327.5 -25.5t152.5 -85.5t47 -170q0 -176 -124.5 -251t-410.5 -75q-194 0 -297 27.5t-151.5 88t-48.5 165.5zM174 -74q0 -109 87 -157t308 -48q158 0 250 22.5t135 71t43 140.5q0 78 -37.5 118.5t-122 57t-268.5 16.5q-143 0 -229 -24t-126 -68.5t-40 -128.5zM238 774 q0 -143 81 -207.5t256 -64.5q178 0 258 64.5t80 207.5q0 277 -338 277q-175 0 -256 -65.5t-81 -211.5z" />
<glyph unicode="h" horiz-adv-x="1241" d="M166 0v1589h104v-622q73 180 408 180q112 0 189.5 -23t123.5 -68.5t69 -124.5t23 -245v-686h-104v674q0 172 -30.5 239.5t-100 100.5t-193.5 33q-138 0 -222.5 -42.5t-123.5 -126t-39 -239.5v-639h-104z" />
<glyph unicode="i" horiz-adv-x="453" d="M174 0v1120h105v-1120h-105zM174 1284v199h105v-199h-105z" />
<glyph unicode="j" horiz-adv-x="453" d="M4 -252h8q68 1 101 16t47 49.5t14 118.5v1188h105v-1188q0 -117 -23 -170.5t-77.5 -77.5t-158.5 -24h-16v88zM174 1284v199h105v-199h-105z" />
<glyph unicode="k" horiz-adv-x="1071" d="M166 0v1589h102v-1134l592 665h117l-417 -472l462 -648h-115l-414 575l-225 -251v-324h-102z" />
<glyph unicode="l" horiz-adv-x="567" d="M174 244v1345h105v-1337q0 -77 12 -106t41 -40.5t82 -11.5h51v-92q-18 -4 -80 -4q-79 0 -124.5 23.5t-66 71.5t-20.5 151z" />
<glyph unicode="m" horiz-adv-x="2013" d="M166 0v1116l82 4l12 -157q75 184 408 184q163 0 250 -44.5t112 -152.5q84 197 430 197q113 0 189 -23t121 -69.5t65 -125t20 -243.5v-686h-104v674q0 83 -6 151.5t-36 118t-93.5 76.5t-177.5 27q-138 0 -219.5 -42t-118.5 -125t-37 -241v-639h-105v674q0 83 -6 151.5 t-36 118t-93.5 76.5t-177.5 27q-136 0 -218 -42t-119.5 -124t-37.5 -242v-639h-104z" />
<glyph unicode="n" horiz-adv-x="1241" d="M166 0v1116l82 4l12 -157q85 184 418 184q112 0 189.5 -23t123.5 -68.5t69 -124.5t23 -245v-686h-104v674q0 172 -30.5 239.5t-100 100.5t-193.5 33q-138 0 -222.5 -42.5t-123.5 -126t-39 -239.5v-639h-104z" />
<glyph unicode="o" horiz-adv-x="1274" d="M111 563q0 305 127.5 444.5t396.5 139.5q271 0 399.5 -140.5t128.5 -443.5t-128 -444.5t-400 -141.5q-270 0 -397 140.5t-127 445.5zM215 561q0 -254 102 -370.5t318 -116.5q218 0 321 117t103 370q0 252 -102.5 370t-321.5 118q-217 0 -318.5 -117.5t-101.5 -370.5z" />
<glyph unicode="p" horiz-adv-x="1305" d="M166 -338v1454l82 4l12 -182q46 108 154 158.5t303 50.5q249 0 363 -138t114 -446q0 -306 -115 -443.5t-366 -137.5q-187 0 -291.5 45.5t-151.5 154.5v-520h-104zM270 561q0 -181 41.5 -285t131.5 -151t257 -47q202 0 296 111t94 372q0 263 -94 375.5t-296 112.5 q-166 0 -256.5 -48.5t-132 -153.5t-41.5 -286z" />
<glyph unicode="q" horiz-adv-x="1305" d="M111 565q0 308 116 445t365 137q190 0 292.5 -44t157.5 -155l19 195l78 -6v-1475h-105v518q-60 -111 -160 -155.5t-284 -44.5q-247 0 -363 136.5t-116 448.5zM215 565q0 -263 93 -375t296 -112q165 0 256.5 49t132.5 154t41 284q0 183 -41.5 287t-132 150.5t-256.5 46.5 q-204 0 -296.5 -111.5t-92.5 -372.5z" />
<glyph unicode="r" horiz-adv-x="707" d="M166 0v1116l82 4l12 -192q34 93 142.5 150t254.5 57v-103q-187 0 -287 -105t-100 -304v-623h-104z" />
<glyph unicode="s" horiz-adv-x="1038" d="M76 100l55 80q167 -108 393 -108q186 0 256 54t70 179q0 63 -23.5 101.5t-77 64t-225.5 64.5q-195 43 -264.5 80t-103 94t-33.5 149q0 148 98.5 218.5t300.5 70.5q229 0 391 -94l-49 -86q-148 84 -340 84q-155 0 -227 -47t-72 -148q0 -62 24.5 -100.5t80 -65t205.5 -59.5 q206 -45 277.5 -82t105.5 -93.5t34 -148.5q0 -177 -99 -253.5t-333 -76.5q-259 0 -444 123z" />
<glyph unicode="t" horiz-adv-x="803" d="M68 1026v94h208l17 361l84 12v-373h323v-94h-323v-750q0 -80 17 -114t55 -51t108 -17h143v-94l-77 -2h-78q-102 0 -160 25.5t-84.5 78t-26.5 166.5v758h-206z" />
<glyph unicode="u" horiz-adv-x="1231" d="M158 438v682h104v-684q0 -119 9.5 -166t32 -83.5t62.5 -61.5t103 -38t152 -13q90 0 151 13t100.5 38t60 61t29.5 82.5t9 177.5v674h102v-674q0 -174 -24 -253t-76 -125.5t-139 -68.5t-213 -22q-130 0 -219 23t-142 69.5t-77.5 126t-24.5 242.5z" />
<glyph unicode="v" horiz-adv-x="1069" d="M33 1120h108l396 -1005l395 1005h106l-448 -1130h-111z" />
<glyph unicode="w" horiz-adv-x="1767" d="M37 1120h106l361 -977l330 977h104l328 -975l360 975h105l-416 -1130h-101l-331 977l-330 -977h-100z" />
<glyph unicode="x" horiz-adv-x="1071" d="M51 0l426 585l-391 535h115l338 -461l335 461h113l-393 -537l428 -583h-117l-374 510l-369 -510h-111z" />
<glyph unicode="y" horiz-adv-x="1053" d="M33 1120h108l389 -994l385 994h105l-494 -1253q-44 -113 -105 -160t-165 -47h-94v88h88q71 0 110 29t66 102l48 122z" />
<glyph unicode="z" horiz-adv-x="1004" d="M76 0v84l708 942h-671v94h796v-84l-708 -944h733v-92h-858z" />
<glyph unicode="{" horiz-adv-x="989" d="M178 580v92q117 0 166 10.5t71.5 35.5t22.5 70q0 62 -57 266q-57 203 -57 277q0 141 77.5 199.5t249.5 58.5h129v-94h-114q-89 0 -140.5 -17.5t-74.5 -55t-23 -109.5q0 -31 11.5 -85.5t46.5 -179.5q34 -126 45.5 -182t11.5 -90q0 -118 -109 -149q57 -19 83 -55t26 -95 q0 -64 -57 -274q-36 -128 -47 -181t-11 -83q0 -106 53 -145.5t185 -39.5h114v-92h-129q-171 0 -249 58t-78 200q0 75 57 279q57 203 57 266q0 66 -55 90.5t-205 24.5z" />
<glyph unicode="|" horiz-adv-x="629" d="M262 -338v1927h105v-1927h-105z" />
<glyph unicode="}" horiz-adv-x="989" d="M209 -246h115q133 0 185 40.5t52 144.5q0 30 -11 82t-46 182q-58 210 -58 274q0 115 109 150q-57 17 -83 53.5t-26 95.5q0 35 12 93t46 179q35 128 46 180.5t11 84.5q0 104 -52.5 143t-184.5 39h-115v94h129q173 0 251.5 -59t78.5 -199q0 -76 -58 -277q-59 -202 -59 -266 t52.5 -89t207.5 -25v-92q-156 0 -208 -26.5t-52 -90.5q0 -65 59 -266q58 -202 58 -279q0 -140 -78.5 -199t-251.5 -59h-129v92z" />
<glyph unicode="~" d="M242 960q47 58 106.5 94.5t114.5 36.5q51 0 87.5 -15t67 -33.5t61 -33.5t69.5 -15q31 0 66.5 23.5t88.5 85.5l68 -53q-68 -80 -120.5 -113t-100.5 -33q-45 0 -81.5 15t-69 33.5t-65 33.5t-69.5 15t-78.5 -26t-73.5 -69z" />
<glyph unicode="&#xa1;" horiz-adv-x="707" d="M276 1339v179h156v-179h-156zM295 0l14 1120h90l13 -1120h-117z" />
<glyph unicode="&#xa2;" horiz-adv-x="1124" d="M111 563q0 292 113.5 430.5t357.5 150.5v124h100v-125q198 -8 338 -148l-74 -69q-112 112 -270 121v-974q78 6 143 34t135 88l68 -66q-79 -71 -162 -105.5t-178 -39.5v-177h-100v176q-244 12 -357.5 149t-113.5 431zM213 561q0 -248 92 -363t283 -125v975 q-195 -13 -285 -128t-90 -359z" />
<glyph unicode="&#xa3;" horiz-adv-x="1214" d="M80 745v91h203q-32 149 -42 210.5t-10 116.5q0 192 103 286.5t313 94.5q211 0 379 -76l-43 -90q-146 68 -338 68q-156 0 -232.5 -70t-76.5 -223q0 -51 9.5 -110.5t40.5 -206.5h499v-91h-476q66 -276 66 -395q0 -121 -21 -180q78 -39 183.5 -65.5t198.5 -26.5 q73 0 113.5 18.5t57.5 60t17 136.5v45h96v-47q0 -126 -27.5 -189t-88.5 -91.5t-166 -28.5q-205 0 -402 95l-27 13q-82 -90 -311 -90v92q111 0 169.5 20.5t84 67t25.5 168.5q0 121 -71 397h-226z" />
<glyph unicode="&#xa4;" horiz-adv-x="1152" d="M92 392l208 216q-28 40 -38 78t-10 94q0 103 48 172l-208 216l116 108l200 -216q72 48 164 48q96 0 168 -48l204 216l116 -120l-208 -204q28 -40 38 -80t10 -92q0 -96 -52 -172l208 -216l-116 -108l-200 216q-72 -48 -168 -48q-92 0 -164 48l-200 -216zM400 780 q0 -80 50 -128t122 -48q80 0 128 48t48 128t-50 130t-126 50t-124 -50t-48 -130z" />
<glyph unicode="&#xa5;" horiz-adv-x="1245" d="M37 1518h110l476 -777l475 777h110l-534 -869v-65h444v-92h-444v-205h444v-94h-444v-193h-103v193h-442v94h442v205h-442v92h442v67z" />
<glyph unicode="&#xa6;" horiz-adv-x="631" d="M262 -338v803h105v-803h-105zM262 786v803h105v-803h-105z" />
<glyph unicode="&#xa7;" horiz-adv-x="1077" d="M106 766q0 131 85 200t272 81v155q0 139 29.5 204t94 98.5t179.5 33.5h61l56 -2v-92h-109q-78 0 -123 -24t-65.5 -70t-20.5 -146v-155q209 -5 307.5 -74.5t98.5 -208.5q0 -132 -88 -200t-279 -80v-171q0 -136 -30 -202t-96 -99.5t-179 -33.5h-115v92h107q78 0 123.5 24 t65.5 69.5t20 147.5v172q-205 7 -299.5 75.5t-94.5 205.5zM199 766q0 -109 85 -155t253 -46q176 0 259 49.5t83 151.5q0 107 -88 152t-254 45q-167 0 -252.5 -45t-85.5 -152z" />
<glyph unicode="&#xa8;" d="M346 1245v185h98v-185h-98zM766 1245v185h98v-185h-98z" />
<glyph unicode="&#xa9;" horiz-adv-x="1718" d="M98 760q0 374 198 579t560 205q364 0 563 -206.5t199 -577.5q0 -370 -199.5 -577.5t-562.5 -207.5q-361 0 -559.5 206t-198.5 579zM162 760q0 -345 179 -534t515 -189q337 0 517.5 190t180.5 533q0 346 -181.5 534.5t-516.5 188.5t-514.5 -188.5t-179.5 -534.5zM365 768 q0 259 133 397t374 138q98 0 190.5 -32t160.5 -91l-58 -60q-57 51 -135.5 78t-159.5 27q-202 0 -313 -118.5t-111 -338.5q0 -224 110 -341.5t316 -117.5q187 0 302 105l55 -56q-140 -129 -359 -129q-247 0 -376 139.5t-129 399.5z" />
<glyph unicode="&#xaa;" horiz-adv-x="1188" d="M137 864q0 122 59 193.5t187.5 104t372.5 32.5h51q-2 117 -24.5 167t-76 72.5t-155.5 22.5q-65 0 -141 -21.5t-127 -56.5l-52 72q56 38 148.5 65t177.5 27q135 0 207 -31t102.5 -102t30.5 -235v-361q0 -66 7 -86t24.5 -27.5t68.5 -7.5v-84l-28 -2q-70 0 -99 14.5 t-42.5 50t-14.5 105.5q-43 -96 -128.5 -141t-231.5 -45q-157 0 -236.5 70t-79.5 204zM223 332v84h680v-84h-680zM227 868q0 -196 240 -196q170 0 255 87.5t85 276.5v80h-47q-214 0 -324 -23.5t-159.5 -76t-49.5 -148.5z" />
<glyph unicode="&#xab;" horiz-adv-x="1331" d="M193 559l309 561h96l-305 -561l305 -559h-96zM686 559l309 561h97l-306 -561l306 -559h-97z" />
<glyph unicode="&#xac;" horiz-adv-x="1536" d="M212 728v192h1084v-568h-180v376h-904z" />
<glyph unicode="&#xad;" horiz-adv-x="942" d="M117 567v97h710v-97h-710z" />
<glyph unicode="&#xae;" horiz-adv-x="1718" d="M98 760q0 374 198 579t560 205q364 0 563 -206.5t199 -577.5q0 -370 -199.5 -577.5t-562.5 -207.5q-361 0 -559.5 206t-198.5 579zM162 760q0 -345 179 -534t515 -189q337 0 517.5 190t180.5 533q0 346 -181.5 534.5t-516.5 188.5t-514.5 -188.5t-179.5 -534.5zM500 238 v1034h430q175 0 252.5 -68t77.5 -221q0 -139 -64.5 -209.5t-207.5 -82.5l269 -453h-83l-267 452h-327v-452h-80zM580 762h352q134 0 192 53t58 166t-57.5 166t-194.5 53h-350v-438z" />
<glyph unicode="&#xaf;" d="M256 1239v90h698v-90h-698z" />
<glyph unicode="&#xb0;" horiz-adv-x="1165" d="M152 1061q0 239 110.5 360t319.5 121q212 0 322 -122.5t110 -358.5q0 -235 -109.5 -357t-322.5 -122q-212 0 -321 121.5t-109 357.5zM244 1061q0 -393 338 -393q340 0 340 393q0 391 -340 391q-338 0 -338 -391z" />
<glyph unicode="&#xb1;" horiz-adv-x="1409" d="M225 43v96h957v-96h-957zM225 674v98h426v426h105v-426h426v-98h-426v-426h-105v426h-426z" />
<glyph unicode="&#xb2;" horiz-adv-x="858" d="M129 1473q121 57 283 57q143 0 211.5 -52.5t68.5 -170.5q0 -62 -16.5 -111t-52.5 -99.5t-144 -162.5l-231 -244h454v-76h-569v70l285 297q108 114 136 154t39 77t11 88q0 79 -46.5 115.5t-151.5 36.5q-133 0 -238 -49z" />
<glyph unicode="&#xb3;" horiz-adv-x="905" d="M117 680l43 68q71 -39 135.5 -54.5t136.5 -15.5q129 0 179.5 45.5t50.5 155.5q0 79 -24.5 118.5t-79 57.5t-150.5 18h-115v74h110q131 0 181.5 34.5t50.5 125.5q0 80 -48.5 112.5t-156.5 32.5q-142 0 -248 -63l-45 67q58 36 137.5 56t163.5 20q152 0 219.5 -50.5 t67.5 -162.5q0 -85 -31 -133.5t-102 -71.5q86 -20 122 -82.5t36 -159.5q0 -143 -70 -206.5t-244 -63.5q-94 0 -169 18.5t-150 59.5z" />
<glyph unicode="&#xb4;" d="M463 1243l315 301h131l-340 -301h-106z" />
<glyph unicode="&#xb6;" horiz-adv-x="1231" d="M117 1083q0 234 112 334.5t373 100.5h426v-1518h-100v633h-281v-633h-100v634q-228 9 -329 116.5t-101 332.5zM221 1081q0 -193 87 -275.5t286 -82.5h334v698h-328q-209 0 -294 -76t-85 -264z" />
<glyph unicode="&#xb7;" horiz-adv-x="457" d="M152 561v182h153v-182h-153z" />
<glyph unicode="&#xb8;" d="M399 -389l37 65q85 -47 187 -47q84 0 127 27.5t43 89.5q0 59 -34 80t-116 21l-45 -1l-41 31l27 139h75l-18 -110l42 1q73 0 112.5 -17.5t60.5 -53t21 -94.5q0 -186 -252 -186q-129 0 -226 55z" />
<glyph unicode="&#xb9;" horiz-adv-x="643" d="M129 1438v80h274v-904h-88v824h-186z" />
<glyph unicode="&#xba;" horiz-adv-x="1200" d="M176 1071q0 471 424 471q426 0 426 -471t-426 -471q-424 0 -424 471zM229 330v86h742v-86h-742zM268 1071q0 -387 332 -387t332 387q0 383 -332 383t-332 -383z" />
<glyph unicode="&#xbb;" horiz-adv-x="1331" d="M242 0l305 561l-305 559h96l309 -559l-309 -561h-96zM735 0l303 561l-303 559h96l310 -559l-310 -561h-96z" />
<glyph unicode="&#xbc;" horiz-adv-x="1679" d="M127 1436v82h276v-906h-90v824h-186zM342 0l844 1518h98l-844 -1518h-98zM903 227v74l404 606h100l-403 -602h339l15 266h74v-266h153v-78h-153v-227h-89v227h-440z" />
<glyph unicode="&#xbd;" horiz-adv-x="1829" d="M127 1436v82h276v-906h-90v824h-186zM342 0l844 1518h98l-844 -1518h-98zM1087 860q123 58 283 58q143 0 212 -53t69 -173q0 -61 -17 -111t-54.5 -102t-139.5 -157l-232 -244h439v-78h-555v74l284 295q107 111 135.5 150.5t40 77t11.5 89.5q0 79 -47 115.5t-152 36.5 q-137 0 -236 -52z" />
<glyph unicode="&#xbe;" horiz-adv-x="1847" d="M80 690l47 70q71 -38 134 -54t134 -16q130 0 180 45t50 154q0 111 -57 151.5t-195 40.5h-115v78h111q132 0 181.5 34.5t49.5 123.5q0 80 -49 112.5t-156 32.5q-145 0 -248 -65l-47 69q120 76 301 76q154 0 220.5 -49.5t66.5 -163.5q0 -84 -32 -133t-101 -72 q85 -20 122.5 -81t37.5 -160q0 -146 -70.5 -209.5t-243.5 -63.5q-97 0 -171 19.5t-150 60.5zM510 0l846 1518h98l-846 -1518h-98zM1073 227v74l402 606h100l-404 -602h340l17 266h71v-266h154v-78h-154v-227h-88v227h-438z" />
<glyph unicode="&#xbf;" horiz-adv-x="1335" d="M180 340q0 83 24.5 143.5t78 112.5t184.5 131q85 53 123 90t55 84.5t17 127.5q0 50 -5 116h103q6 -72 6 -129q0 -127 -47 -201.5t-176 -150.5q-134 -83 -177 -123.5t-61 -86t-18 -108.5q0 -104 36.5 -154.5t116.5 -75t217 -24.5q122 0 238.5 28t210.5 79l47 -90 q-89 -50 -224.5 -83.5t-275.5 -33.5q-173 0 -275.5 34.5t-150 105.5t-47.5 208zM633 1366v170h153v-170h-153z" />
<glyph unicode="&#xc0;" horiz-adv-x="1448" d="M61 0l609 1528h104l608 -1528h-108l-154 385h-801l-151 -385h-107zM356 483h727l-362 912zM418 1913h131l313 -301h-104z" />
<glyph unicode="&#xc1;" horiz-adv-x="1448" d="M61 0l609 1528h104l608 -1528h-108l-154 385h-801l-151 -385h-107zM356 483h727l-362 912zM580 1612l315 301h131l-340 -301h-106z" />
<glyph unicode="&#xc2;" horiz-adv-x="1448" d="M61 0l609 1528h104l608 -1528h-108l-154 385h-801l-151 -385h-107zM348 1612l310 301h125l311 -301h-113l-262 234l-262 -234h-109zM356 483h727l-362 912z" />
<glyph unicode="&#xc3;" horiz-adv-x="1448" d="M61 0l609 1528h104l608 -1528h-108l-154 385h-801l-151 -385h-107zM356 483h727l-362 912zM359 1674q47 58 106.5 94.5t114.5 36.5q51 0 87.5 -15t67 -33.5t61 -33.5t69.5 -15q31 0 66.5 23.5t88.5 85.5l68 -53q-68 -80 -120.5 -113t-100.5 -33q-45 0 -81.5 15t-69 33.5 t-65 33.5t-69.5 15t-78.5 -26t-73.5 -69z" />
<glyph unicode="&#xc4;" horiz-adv-x="1448" d="M61 0l609 1528h104l608 -1528h-108l-154 385h-801l-151 -385h-107zM356 483h727l-362 912zM463 1614v185h98v-185h-98zM883 1614v185h98v-185h-98z" />
<glyph unicode="&#xc5;" horiz-adv-x="1448" d="M63 0l578 1452q-78 22 -113.5 82t-35.5 143q0 110 60 173t171 63q106 0 167.5 -64t61.5 -172q0 -81 -36.5 -141.5t-108.5 -83.5l577 -1452h-108l-154 385h-803l-151 -385h-105zM356 481h729l-364 914zM561 1677q0 -79 41.5 -122.5t120.5 -43.5q76 0 118 43t42 123 q0 77 -41.5 121.5t-118.5 44.5q-80 0 -121 -45t-41 -121z" />
<glyph unicode="&#xc6;" horiz-adv-x="2144" d="M51 0l957 1518h1007v-101h-856v-573h836v-99h-836v-647h864v-98h-966v373h-660l-235 -373h-111zM453 467h604v950z" />
<glyph unicode="&#xc7;" horiz-adv-x="1454" d="M96 760q0 383 187.5 582.5t554.5 199.5q148 0 280.5 -44.5t231.5 -135.5l-74 -76q-87 78 -200 117t-238 39q-311 0 -472 -171t-161 -511q0 -682 633 -682q144 0 251 38t197 122l74 -74q-105 -99 -232 -143t-294 -44q-738 0 -738 783zM519 -389l37 65q85 -47 187 -47 q84 0 127 27.5t43 89.5q0 59 -34 80t-116 21l-45 -1l-41 31l27 139h75l-18 -110l42 1q73 0 112.5 -17.5t60.5 -53t21 -94.5q0 -186 -252 -186q-129 0 -226 55z" />
<glyph unicode="&#xc8;" horiz-adv-x="1278" d="M186 0v1518h963v-101h-854v-573h833v-101h-833v-645h862v-98h-971zM334 1913h131l313 -301h-104z" />
<glyph unicode="&#xc9;" horiz-adv-x="1278" d="M186 0v1518h963v-101h-854v-573h833v-101h-833v-645h862v-98h-971zM496 1612l315 301h131l-340 -301h-106z" />
<glyph unicode="&#xca;" horiz-adv-x="1278" d="M186 0v1518h963v-101h-854v-573h833v-101h-833v-645h862v-98h-971zM264 1612l310 301h125l311 -301h-113l-262 234l-262 -234h-109z" />
<glyph unicode="&#xcb;" horiz-adv-x="1278" d="M186 0v1518h963v-101h-854v-573h833v-101h-833v-645h862v-98h-971zM379 1614v185h98v-185h-98zM799 1614v185h98v-185h-98z" />
<glyph unicode="&#xcc;" horiz-adv-x="506" d="M-92 1913h133l264 -301h-104zM201 0v1518h104v-1518h-104z" />
<glyph unicode="&#xcd;" horiz-adv-x="506" d="M201 0v1518h104v-1518h-104zM201 1612l264 301h131l-291 -301h-104z" />
<glyph unicode="&#xce;" horiz-adv-x="506" d="M-63 1612l256 301h118l254 -301h-108l-207 235l-207 -235h-106zM201 0v1518h104v-1518h-104z" />
<glyph unicode="&#xcf;" horiz-adv-x="506" d="M-3 1614v185h98v-185h-98zM201 0v1518h104v-1518h-104zM417 1614v185h98v-185h-98z" />
<glyph unicode="&#xd0;" horiz-adv-x="1520" d="M2 748v92h184v678h482q296 0 454.5 -71.5t230.5 -232t72 -454.5q0 -282 -78.5 -445.5t-246.5 -239t-465 -75.5h-449v748h-184zM295 98h344q256 0 401 65t211 205.5t66 391.5q0 260 -60.5 397.5t-197.5 198.5t-391 61h-373v-577h362v-92h-362v-650z" />
<glyph unicode="&#xd1;" horiz-adv-x="1569" d="M186 0v1518h121l973 -1346v1346h102v-1518h-98l-995 1374v-1374h-103zM420 1674q47 58 106.5 94.5t114.5 36.5q51 0 87.5 -15t67 -33.5t61 -33.5t69.5 -15q31 0 66.5 23.5t88.5 85.5l68 -53q-68 -80 -120.5 -113t-100.5 -33q-45 0 -81.5 15t-69 33.5t-65 33.5t-69.5 15 t-78.5 -26t-73.5 -69z" />
<glyph unicode="&#xd2;" horiz-adv-x="1696" d="M96 760q0 389 188.5 585.5t561.5 196.5q753 0 753 -782q0 -389 -187.5 -587t-565.5 -198q-375 0 -562.5 198.5t-187.5 586.5zM205 760q0 -684 641 -684q647 0 647 684q0 336 -161 509t-486 173q-641 0 -641 -682zM543 1913h131l313 -301h-104z" />
<glyph unicode="&#xd3;" horiz-adv-x="1696" d="M96 760q0 389 188.5 585.5t561.5 196.5q753 0 753 -782q0 -389 -187.5 -587t-565.5 -198q-375 0 -562.5 198.5t-187.5 586.5zM205 760q0 -684 641 -684q647 0 647 684q0 336 -161 509t-486 173q-641 0 -641 -682zM705 1612l315 301h131l-340 -301h-106z" />
<glyph unicode="&#xd4;" horiz-adv-x="1696" d="M96 760q0 389 188.5 585.5t561.5 196.5q753 0 753 -782q0 -389 -187.5 -587t-565.5 -198q-375 0 -562.5 198.5t-187.5 586.5zM205 760q0 -684 641 -684q647 0 647 684q0 336 -161 509t-486 173q-641 0 -641 -682zM473 1612l310 301h125l311 -301h-113l-262 234l-262 -234 h-109z" />
<glyph unicode="&#xd5;" horiz-adv-x="1696" d="M96 760q0 389 188.5 585.5t561.5 196.5q753 0 753 -782q0 -389 -187.5 -587t-565.5 -198q-375 0 -562.5 198.5t-187.5 586.5zM205 760q0 -684 641 -684q647 0 647 684q0 336 -161 509t-486 173q-641 0 -641 -682zM484 1674q47 58 106.5 94.5t114.5 36.5q51 0 87.5 -15 t67 -33.5t61 -33.5t69.5 -15q31 0 66.5 23.5t88.5 85.5l68 -53q-68 -80 -120.5 -113t-100.5 -33q-45 0 -81.5 15t-69 33.5t-65 33.5t-69.5 15t-78.5 -26t-73.5 -69z" />
<glyph unicode="&#xd6;" horiz-adv-x="1696" d="M96 760q0 389 188.5 585.5t561.5 196.5q753 0 753 -782q0 -389 -187.5 -587t-565.5 -198q-375 0 -562.5 198.5t-187.5 586.5zM205 760q0 -684 641 -684q647 0 647 684q0 336 -161 509t-486 173q-641 0 -641 -682zM588 1614v185h98v-185h-98zM1008 1614v185h98v-185h-98z " />
<glyph unicode="&#xd7;" horiz-adv-x="1409" d="M307 391l332 332l-332 332l66 67l332 -331l329 331l66 -67l-330 -332l330 -332l-66 -65l-329 331l-334 -331z" />
<glyph unicode="&#xd8;" horiz-adv-x="1696" d="M96 760q0 399 184.5 590.5t565.5 191.5q192 0 334 -49l63 111h107l-83 -147q332 -170 332 -697q0 -400 -185.5 -592.5t-567.5 -192.5q-212 0 -363 59l-63 -118h-109l88 158q-303 176 -303 686zM203 760q0 -441 252 -596l680 1237q-122 43 -289 43q-329 0 -486 -168 t-157 -516zM531 126q125 -52 315 -52q331 0 490 167.5t159 518.5q0 232 -69 381.5t-212 226.5z" />
<glyph unicode="&#xd9;" horiz-adv-x="1571" d="M176 537v981h109v-973q0 -172 51.5 -270.5t161 -148.5t284.5 -50q172 0 284.5 47.5t168 149t55.5 272.5v973h105v-981q0 -296 -149.5 -429t-463.5 -133q-204 0 -337.5 56t-201 176t-67.5 330zM479 1913h131l313 -301h-104z" />
<glyph unicode="&#xda;" horiz-adv-x="1571" d="M176 537v981h109v-973q0 -172 51.5 -270.5t161 -148.5t284.5 -50q172 0 284.5 47.5t168 149t55.5 272.5v973h105v-981q0 -296 -149.5 -429t-463.5 -133q-204 0 -337.5 56t-201 176t-67.5 330zM641 1612l315 301h131l-340 -301h-106z" />
<glyph unicode="&#xdb;" horiz-adv-x="1571" d="M176 537v981h109v-973q0 -172 51.5 -270.5t161 -148.5t284.5 -50q172 0 284.5 47.5t168 149t55.5 272.5v973h105v-981q0 -296 -149.5 -429t-463.5 -133q-204 0 -337.5 56t-201 176t-67.5 330zM409 1612l310 301h125l311 -301h-113l-262 234l-262 -234h-109z" />
<glyph unicode="&#xdc;" horiz-adv-x="1571" d="M176 537v981h109v-973q0 -172 51.5 -270.5t161 -148.5t284.5 -50q172 0 284.5 47.5t168 149t55.5 272.5v973h105v-981q0 -296 -149.5 -429t-463.5 -133q-204 0 -337.5 56t-201 176t-67.5 330zM524 1614v185h98v-185h-98zM944 1614v185h98v-185h-98z" />
<glyph unicode="&#xdd;" horiz-adv-x="1397" d="M35 1518h117l548 -813l549 813h113l-610 -905v-613h-107v609zM555 1612l315 301h131l-340 -301h-106z" />
<glyph unicode="&#xde;" horiz-adv-x="1413" d="M186 0v1518h107v-265h538q262 0 374 -101t112 -335q0 -238 -113 -346.5t-368 -108.5h-543v-362h-107zM293 461h545q199 0 285.5 82t86.5 272q0 188 -84 264t-297 76h-536v-694z" />
<glyph unicode="&#xdf;" horiz-adv-x="1298" d="M166 0v1128q0 231 124.5 348t360.5 117q235 0 344 -95.5t109 -291.5q0 -137 -59 -230.5t-175 -133.5q178 -31 264.5 -130.5t86.5 -277.5q0 -164 -57 -255.5t-179 -135t-321 -43.5h-136v96h134q165 0 263.5 35t144.5 103.5t46 203.5q0 184 -109.5 263t-355.5 79v90 q170 0 260 81.5t90 238.5q0 154 -83 227.5t-269 73.5q-185 0 -283 -93t-98 -272v-1126h-102z" />
<glyph unicode="&#xe0;" horiz-adv-x="1255" d="M102 307q0 157 69.5 243t225.5 124.5t461 38.5h74q-2 154 -32.5 218t-100 92t-195.5 28q-85 0 -175 -25.5t-165 -75.5l-55 82q77 51 185.5 83t215.5 32q166 0 257 -38.5t129 -128t38 -288.5v-450q0 -81 8.5 -105.5t31 -33.5t83.5 -9v-92q-8 -4 -41 -4q-94 0 -134 42 t-40 146q-58 -113 -164 -161t-291 -48q-196 0 -290.5 79.5t-94.5 250.5zM205 313q0 -131 71.5 -187t223.5 -56q229 0 330.5 108t101.5 342v96h-70q-267 0 -403.5 -26t-195 -87.5t-58.5 -189.5zM328 1544h131l313 -301h-104z" />
<glyph unicode="&#xe1;" horiz-adv-x="1255" d="M102 307q0 157 69.5 243t225.5 124.5t461 38.5h74q-2 154 -32.5 218t-100 92t-195.5 28q-85 0 -175 -25.5t-165 -75.5l-55 82q77 51 185.5 83t215.5 32q166 0 257 -38.5t129 -128t38 -288.5v-450q0 -81 8.5 -105.5t31 -33.5t83.5 -9v-92q-8 -4 -41 -4q-94 0 -134 42 t-40 146q-58 -113 -164 -161t-291 -48q-196 0 -290.5 79.5t-94.5 250.5zM205 313q0 -131 71.5 -187t223.5 -56q229 0 330.5 108t101.5 342v96h-70q-267 0 -403.5 -26t-195 -87.5t-58.5 -189.5zM490 1243l315 301h131l-340 -301h-106z" />
<glyph unicode="&#xe2;" horiz-adv-x="1255" d="M102 307q0 157 69.5 243t225.5 124.5t461 38.5h74q-2 154 -32.5 218t-100 92t-195.5 28q-85 0 -175 -25.5t-165 -75.5l-55 82q77 51 185.5 83t215.5 32q166 0 257 -38.5t129 -128t38 -288.5v-450q0 -81 8.5 -105.5t31 -33.5t83.5 -9v-92q-8 -4 -41 -4q-94 0 -134 42 t-40 146q-58 -113 -164 -161t-291 -48q-196 0 -290.5 79.5t-94.5 250.5zM205 313q0 -131 71.5 -187t223.5 -56q229 0 330.5 108t101.5 342v96h-70q-267 0 -403.5 -26t-195 -87.5t-58.5 -189.5zM258 1243l310 301h125l311 -301h-113l-262 234l-262 -234h-109z" />
<glyph unicode="&#xe3;" horiz-adv-x="1255" d="M102 307q0 157 69.5 243t225.5 124.5t461 38.5h74q-2 154 -32.5 218t-100 92t-195.5 28q-85 0 -175 -25.5t-165 -75.5l-55 82q77 51 185.5 83t215.5 32q166 0 257 -38.5t129 -128t38 -288.5v-450q0 -81 8.5 -105.5t31 -33.5t83.5 -9v-92q-8 -4 -41 -4q-94 0 -134 42 t-40 146q-58 -113 -164 -161t-291 -48q-196 0 -290.5 79.5t-94.5 250.5zM205 313q0 -131 71.5 -187t223.5 -56q229 0 330.5 108t101.5 342v96h-70q-267 0 -403.5 -26t-195 -87.5t-58.5 -189.5zM269 1305q47 58 106.5 94.5t114.5 36.5q51 0 87.5 -15t67 -33.5t61 -33.5 t69.5 -15q31 0 66.5 23.5t88.5 85.5l68 -53q-68 -80 -120.5 -113t-100.5 -33q-45 0 -81.5 15t-69 33.5t-65 33.5t-69.5 15t-78.5 -26t-73.5 -69z" />
<glyph unicode="&#xe4;" horiz-adv-x="1255" d="M102 307q0 157 69.5 243t225.5 124.5t461 38.5h74q-2 154 -32.5 218t-100 92t-195.5 28q-85 0 -175 -25.5t-165 -75.5l-55 82q77 51 185.5 83t215.5 32q166 0 257 -38.5t129 -128t38 -288.5v-450q0 -81 8.5 -105.5t31 -33.5t83.5 -9v-92q-8 -4 -41 -4q-94 0 -134 42 t-40 146q-58 -113 -164 -161t-291 -48q-196 0 -290.5 79.5t-94.5 250.5zM205 313q0 -131 71.5 -187t223.5 -56q229 0 330.5 108t101.5 342v96h-70q-267 0 -403.5 -26t-195 -87.5t-58.5 -189.5zM373 1245v185h98v-185h-98zM793 1245v185h98v-185h-98z" />
<glyph unicode="&#xe5;" horiz-adv-x="1255" d="M102 307q0 157 69.5 243t225.5 124.5t461 38.5h74q-2 154 -32.5 218t-100 92t-195.5 28q-85 0 -175 -25.5t-165 -75.5l-55 82q77 51 185.5 83t215.5 32q166 0 257 -38.5t129 -128t38 -288.5v-450q0 -81 8.5 -105.5t31 -33.5t83.5 -9v-92q-8 -4 -41 -4q-94 0 -134 42 t-40 146q-58 -113 -164 -161t-291 -48q-196 0 -290.5 79.5t-94.5 250.5zM205 313q0 -131 71.5 -187t223.5 -56q229 0 330.5 108t101.5 342v96h-70q-267 0 -403.5 -26t-195 -87.5t-58.5 -189.5zM400 1460q0 112 61.5 175t169.5 63q107 0 168.5 -64.5t61.5 -173.5 q0 -107 -60 -171t-170 -64q-111 0 -171 62t-60 173zM471 1460q0 -79 41 -122.5t119 -43.5t119 44.5t41 121.5t-41.5 121.5t-118.5 44.5t-118.5 -43.5t-41.5 -122.5z" />
<glyph unicode="&#xe6;" horiz-adv-x="2015" d="M102 307q0 155 71 242t228.5 125.5t456.5 38.5h74q-2 154 -32.5 218t-100 92t-195.5 28q-88 0 -180.5 -26.5t-161.5 -72.5l-53 80q77 51 185.5 83t215.5 32q184 0 274.5 -50.5t118.5 -166.5q104 217 441 217q112 0 189 -24t127 -66.5t78.5 -104.5t41 -141.5t12.5 -267.5 h-864q2 -182 46 -278t135.5 -145.5t242.5 -49.5q76 0 135 11t109 33t123 74l57 -75q-99 -73 -199.5 -104.5t-224.5 -31.5q-188 0 -305.5 65t-167.5 204q-59 -145 -170 -207t-320 -62q-198 0 -292.5 81t-94.5 249zM205 313q0 -131 71.5 -187t223.5 -56q229 0 330.5 108 t101.5 342v96h-70q-262 0 -399 -27t-197.5 -90.5t-60.5 -185.5zM1030 639h762q-7 139 -19 191.5t-35 93.5t-60.5 69.5t-94.5 44t-141 15.5q-139 0 -225.5 -44t-131.5 -128.5t-55 -241.5z" />
<glyph unicode="&#xe7;" horiz-adv-x="1139" d="M111 563q0 311 126.5 447.5t397.5 136.5q116 0 212.5 -35.5t174.5 -116.5l-74 -71q-125 125 -313 125q-218 0 -319 -115.5t-101 -372.5q0 -258 100 -372.5t320 -114.5q101 0 177 32t142 91l70 -68q-99 -87 -189 -119.5t-202 -32.5q-184 0 -299 62t-169 186.5t-54 337.5z M360 -389l37 65q85 -47 187 -47q84 0 127 27.5t43 89.5q0 59 -34 80t-116 21l-45 -1l-41 31l27 139h75l-18 -110l42 1q73 0 112.5 -17.5t60.5 -53t21 -94.5q0 -186 -252 -186q-129 0 -226 55z" />
<glyph unicode="&#xe8;" horiz-adv-x="1198" d="M111 563q0 212 54 335t167.5 186t294.5 63q110 0 186.5 -24t127 -67t79.5 -106.5t42 -145t13 -261.5h-864q2 -182 46 -278.5t136 -145.5t242 -49q107 0 186.5 23t179.5 95l58 -75q-99 -73 -199.5 -104.5t-224.5 -31.5q-180 0 -296.5 58t-172 183t-55.5 345zM213 639h762 q-7 139 -19 191.5t-35 93.5t-60.5 69.5t-94.5 44t-141 15.5q-139 0 -225.5 -44t-131.5 -128.5t-55 -241.5zM296 1544h131l313 -301h-104z" />
<glyph unicode="&#xe9;" horiz-adv-x="1198" d="M111 563q0 212 54 335t167.5 186t294.5 63q110 0 186.5 -24t127 -67t79.5 -106.5t42 -145t13 -261.5h-864q2 -182 46 -278.5t136 -145.5t242 -49q107 0 186.5 23t179.5 95l58 -75q-99 -73 -199.5 -104.5t-224.5 -31.5q-180 0 -296.5 58t-172 183t-55.5 345zM213 639h762 q-7 139 -19 191.5t-35 93.5t-60.5 69.5t-94.5 44t-141 15.5q-139 0 -225.5 -44t-131.5 -128.5t-55 -241.5zM458 1243l315 301h131l-340 -301h-106z" />
<glyph unicode="&#xea;" horiz-adv-x="1198" d="M111 563q0 212 54 335t167.5 186t294.5 63q110 0 186.5 -24t127 -67t79.5 -106.5t42 -145t13 -261.5h-864q2 -182 46 -278.5t136 -145.5t242 -49q107 0 186.5 23t179.5 95l58 -75q-99 -73 -199.5 -104.5t-224.5 -31.5q-180 0 -296.5 58t-172 183t-55.5 345zM213 639h762 q-7 139 -19 191.5t-35 93.5t-60.5 69.5t-94.5 44t-141 15.5q-139 0 -225.5 -44t-131.5 -128.5t-55 -241.5zM226 1243l310 301h125l311 -301h-113l-262 234l-262 -234h-109z" />
<glyph unicode="&#xeb;" horiz-adv-x="1198" d="M111 563q0 212 54 335t167.5 186t294.5 63q110 0 186.5 -24t127 -67t79.5 -106.5t42 -145t13 -261.5h-864q2 -182 46 -278.5t136 -145.5t242 -49q107 0 186.5 23t179.5 95l58 -75q-99 -73 -199.5 -104.5t-224.5 -31.5q-180 0 -296.5 58t-172 183t-55.5 345zM213 639h762 q-7 139 -19 191.5t-35 93.5t-60.5 69.5t-94.5 44t-141 15.5q-139 0 -225.5 -44t-131.5 -128.5t-55 -241.5zM341 1245v185h98v-185h-98zM761 1245v185h98v-185h-98z" />
<glyph unicode="&#xec;" horiz-adv-x="453" d="M-96 1542h129l246 -299h-103zM174 0v1120h105v-1120h-105z" />
<glyph unicode="&#xed;" horiz-adv-x="453" d="M174 0v1120h105v-1120h-105zM178 1243l246 299h127l-270 -299h-103z" />
<glyph unicode="&#xee;" horiz-adv-x="453" d="M-68 1243l236 299h115l235 -299h-108l-185 236l-188 -236h-105zM174 0v1120h105v-1120h-105z" />
<glyph unicode="&#xef;" horiz-adv-x="453" d="M-8 1278v184h92v-184h-92zM174 0v1120h105v-1120h-105zM369 1278v184h92v-184h-92z" />
<glyph unicode="&#xf0;" horiz-adv-x="1274" d="M111 555q0 299 123 437t382 138q152 0 250 -40t164 -138q-45 224 -160 365l-239 -74v82l184 57q-80 84 -190 164l84 53q134 -96 213 -184l278 86v-82l-226 -70q71 -102 110 -212t59 -248.5t20 -317.5q0 -310 -127 -452t-401 -142q-267 0 -395.5 138.5t-128.5 439.5z M215 555q0 -252 102 -366.5t318 -114.5q218 0 321 115t103 366t-102 367t-322 116q-218 0 -319 -115.5t-101 -367.5z" />
<glyph unicode="&#xf1;" horiz-adv-x="1241" d="M166 0v1116l82 4l12 -157q85 184 418 184q112 0 189.5 -23t123.5 -68.5t69 -124.5t23 -245v-686h-104v674q0 172 -30.5 239.5t-100 100.5t-193.5 33q-138 0 -222.5 -42.5t-123.5 -126t-39 -239.5v-639h-104zM256 1305q47 58 106.5 94.5t114.5 36.5q51 0 87.5 -15 t67 -33.5t61 -33.5t69.5 -15q31 0 66.5 23.5t88.5 85.5l68 -53q-68 -80 -120.5 -113t-100.5 -33q-45 0 -81.5 15t-69 33.5t-65 33.5t-69.5 15t-78.5 -26t-73.5 -69z" />
<glyph unicode="&#xf2;" horiz-adv-x="1274" d="M111 563q0 305 127.5 444.5t396.5 139.5q271 0 399.5 -140.5t128.5 -443.5t-128 -444.5t-400 -141.5q-270 0 -397 140.5t-127 445.5zM215 561q0 -254 102 -370.5t318 -116.5q218 0 321 117t103 370q0 252 -102.5 370t-321.5 118q-217 0 -318.5 -117.5t-101.5 -370.5z M332 1544h131l313 -301h-104z" />
<glyph unicode="&#xf3;" horiz-adv-x="1274" d="M111 563q0 305 127.5 444.5t396.5 139.5q271 0 399.5 -140.5t128.5 -443.5t-128 -444.5t-400 -141.5q-270 0 -397 140.5t-127 445.5zM215 561q0 -254 102 -370.5t318 -116.5q218 0 321 117t103 370q0 252 -102.5 370t-321.5 118q-217 0 -318.5 -117.5t-101.5 -370.5z M494 1243l315 301h131l-340 -301h-106z" />
<glyph unicode="&#xf4;" horiz-adv-x="1274" d="M111 563q0 305 127.5 444.5t396.5 139.5q271 0 399.5 -140.5t128.5 -443.5t-128 -444.5t-400 -141.5q-270 0 -397 140.5t-127 445.5zM215 561q0 -254 102 -370.5t318 -116.5q218 0 321 117t103 370q0 252 -102.5 370t-321.5 118q-217 0 -318.5 -117.5t-101.5 -370.5z M262 1243l310 301h125l311 -301h-113l-262 234l-262 -234h-109z" />
<glyph unicode="&#xf5;" horiz-adv-x="1274" d="M111 563q0 305 127.5 444.5t396.5 139.5q271 0 399.5 -140.5t128.5 -443.5t-128 -444.5t-400 -141.5q-270 0 -397 140.5t-127 445.5zM215 561q0 -254 102 -370.5t318 -116.5q218 0 321 117t103 370q0 252 -102.5 370t-321.5 118q-217 0 -318.5 -117.5t-101.5 -370.5z M273 1305q47 58 106.5 94.5t114.5 36.5q51 0 87.5 -15t67 -33.5t61 -33.5t69.5 -15q31 0 66.5 23.5t88.5 85.5l68 -53q-68 -80 -120.5 -113t-100.5 -33q-45 0 -81.5 15t-69 33.5t-65 33.5t-69.5 15t-78.5 -26t-73.5 -69z" />
<glyph unicode="&#xf6;" horiz-adv-x="1274" d="M111 563q0 305 127.5 444.5t396.5 139.5q271 0 399.5 -140.5t128.5 -443.5t-128 -444.5t-400 -141.5q-270 0 -397 140.5t-127 445.5zM215 561q0 -254 102 -370.5t318 -116.5q218 0 321 117t103 370q0 252 -102.5 370t-321.5 118q-217 0 -318.5 -117.5t-101.5 -370.5z M377 1245v185h98v-185h-98zM797 1245v185h98v-185h-98z" />
<glyph unicode="&#xf7;" horiz-adv-x="1409" d="M225 674v98h957v-98h-957zM633 242v161h145v-161h-145zM633 1044v160h145v-160h-145z" />
<glyph unicode="&#xf8;" horiz-adv-x="1274" d="M111 563q0 307 127.5 445.5t396.5 138.5q84 0 153.5 -13t105.5 -31l60 105h101l-84 -146q100 -69 146 -191t46 -308q0 -306 -128 -446t-400 -140q-138 0 -256 42l-60 -105h-100l84 146q-192 126 -192 503zM213 561q0 -305 144 -412l490 864q-92 38 -212 38 q-218 0 -320 -117.5t-102 -372.5zM426 108l14 -5q81 -31 195 -31q219 0 322.5 117.5t103.5 371.5q0 303 -147 412z" />
<glyph unicode="&#xf9;" horiz-adv-x="1231" d="M158 438v682h104v-684q0 -119 9.5 -166t32 -83.5t62.5 -61.5t103 -38t152 -13q90 0 151 13t100.5 38t60 61t29.5 82.5t9 177.5v674h102v-674q0 -174 -24 -253t-76 -125.5t-139 -68.5t-213 -22q-130 0 -219 23t-142 69.5t-77.5 126t-24.5 242.5zM311 1544h131l313 -301 h-104z" />
<glyph unicode="&#xfa;" horiz-adv-x="1231" d="M158 438v682h104v-684q0 -119 9.5 -166t32 -83.5t62.5 -61.5t103 -38t152 -13q90 0 151 13t100.5 38t60 61t29.5 82.5t9 177.5v674h102v-674q0 -174 -24 -253t-76 -125.5t-139 -68.5t-213 -22q-130 0 -219 23t-142 69.5t-77.5 126t-24.5 242.5zM473 1243l315 301h131 l-340 -301h-106z" />
<glyph unicode="&#xfb;" horiz-adv-x="1231" d="M158 438v682h104v-684q0 -119 9.5 -166t32 -83.5t62.5 -61.5t103 -38t152 -13q90 0 151 13t100.5 38t60 61t29.5 82.5t9 177.5v674h102v-674q0 -174 -24 -253t-76 -125.5t-139 -68.5t-213 -22q-130 0 -219 23t-142 69.5t-77.5 126t-24.5 242.5zM241 1243l310 301h125 l311 -301h-113l-262 234l-262 -234h-109z" />
<glyph unicode="&#xfc;" horiz-adv-x="1231" d="M158 438v682h104v-684q0 -119 9.5 -166t32 -83.5t62.5 -61.5t103 -38t152 -13q90 0 151 13t100.5 38t60 61t29.5 82.5t9 177.5v674h102v-674q0 -174 -24 -253t-76 -125.5t-139 -68.5t-213 -22q-130 0 -219 23t-142 69.5t-77.5 126t-24.5 242.5zM356 1245v185h98v-185h-98 zM776 1245v185h98v-185h-98z" />
<glyph unicode="&#xfd;" horiz-adv-x="1053" d="M33 1120h108l389 -994l385 994h105l-494 -1253q-44 -113 -105 -160t-165 -47h-94v88h88q71 0 110 29t66 102l48 122zM386 1243l315 301h131l-340 -301h-106z" />
<glyph unicode="&#xfe;" horiz-adv-x="1305" d="M166 -338v1927h104v-643q47 107 154.5 154t292.5 47q249 0 363 -138t114 -446q0 -309 -116 -446t-365 -137q-190 0 -293.5 47t-149.5 155v-520h-104zM270 561q0 -181 41.5 -285t131.5 -151t257 -47q202 0 296 111t94 372q0 263 -94 375.5t-296 112.5q-166 0 -256.5 -48.5 t-132 -153.5t-41.5 -286z" />
<glyph unicode="&#xff;" horiz-adv-x="1053" d="M33 1120h108l389 -994l385 994h105l-494 -1253q-44 -113 -105 -160t-165 -47h-94v88h88q71 0 110 29t66 102l48 122zM269 1245v185h98v-185h-98zM689 1245v185h98v-185h-98z" />
<glyph unicode="&#x152;" horiz-adv-x="2580" d="M96 760q0 399 184.5 590.5t565.5 191.5q250 0 411.5 -83t241.5 -253v312h950v-101h-854v-573h834v-99h-834v-647h863v-98h-959v313q-82 -172 -243.5 -255t-409.5 -83q-381 0 -565.5 192.5t-184.5 592.5zM205 760q0 -351 157 -517.5t484 -166.5q329 0 488 167.5t159 516.5 q0 347 -159 514.5t-488 167.5q-327 0 -484 -166.5t-157 -515.5z" />
<glyph unicode="&#x153;" horiz-adv-x="2144" d="M111 563q0 307 127.5 445.5t396.5 138.5q188 0 304 -67t169 -205q48 135 161.5 203.5t303.5 68.5q111 0 187.5 -24t127.5 -65.5t79 -101.5t41 -136t13 -226v-51h-862q2 -181 45.5 -278t134.5 -146t242 -49q76 0 135 11t109 33t123 74l59 -75q-99 -73 -199.5 -104.5 t-226.5 -31.5q-189 0 -306.5 65.5t-166.5 205.5q-103 -271 -473 -271q-270 0 -397 139.5t-127 446.5zM215 561q0 -254 102 -370.5t318 -116.5q218 0 321 117t103 370q0 252 -102.5 370t-321.5 118q-217 0 -318.5 -117.5t-101.5 -370.5zM1161 637h760q-8 142 -20 194 t-34.5 93.5t-61 70t-96 43.5t-138.5 15q-140 0 -226.5 -45t-131 -131t-52.5 -240z" />
<glyph unicode="&#x178;" horiz-adv-x="1397" d="M35 1518h117l548 -813l549 813h113l-610 -905v-613h-107v609zM438 1614v185h98v-185h-98zM858 1614v185h98v-185h-98z" />
<glyph unicode="&#x2c6;" d="M231 1243l310 301h125l311 -301h-113l-262 234l-262 -234h-109z" />
<glyph unicode="&#x2dc;" d="M242 1305q47 58 106.5 94.5t114.5 36.5q51 0 87.5 -15t67 -33.5t61 -33.5t69.5 -15q31 0 66.5 23.5t88.5 85.5l68 -53q-68 -80 -120.5 -113t-100.5 -33q-45 0 -81.5 15t-69 33.5t-65 33.5t-69.5 15t-78.5 -26t-73.5 -69z" />
<glyph unicode="&#x2000;" horiz-adv-x="956" />
<glyph unicode="&#x2001;" horiz-adv-x="1913" />
<glyph unicode="&#x2002;" horiz-adv-x="956" />
<glyph unicode="&#x2003;" horiz-adv-x="1913" />
<glyph unicode="&#x2004;" horiz-adv-x="637" />
<glyph unicode="&#x2005;" horiz-adv-x="478" />
<glyph unicode="&#x2006;" horiz-adv-x="318" />
<glyph unicode="&#x2007;" horiz-adv-x="318" />
<glyph unicode="&#x2008;" horiz-adv-x="239" />
<glyph unicode="&#x2009;" horiz-adv-x="382" />
<glyph unicode="&#x200a;" horiz-adv-x="106" />
<glyph unicode="&#x2010;" horiz-adv-x="942" d="M117 567v97h710v-97h-710z" />
<glyph unicode="&#x2011;" horiz-adv-x="942" d="M117 567v97h710v-97h-710z" />
<glyph unicode="&#x2012;" horiz-adv-x="942" d="M117 567v97h710v-97h-710z" />
<glyph unicode="&#x2013;" horiz-adv-x="1407" d="M117 567v97h1175v-97h-1175z" />
<glyph unicode="&#x2014;" horiz-adv-x="1862" d="M117 567v97h1630v-97h-1630z" />
<glyph unicode="&#x2018;" horiz-adv-x="457" d="M152 1114v152q0 103 27 157.5t110 102.5l35 -60q-57 -32 -78 -66.5t-21 -96.5h80v-189h-153z" />
<glyph unicode="&#x2019;" horiz-adv-x="457" d="M133 1167q57 32 77.5 65t20.5 97h-79v189h153v-150q0 -110 -30 -165t-107 -95z" />
<glyph unicode="&#x201a;" horiz-adv-x="457" d="M133 -123q58 33 78 67t20 99h-79v186h153v-151q0 -109 -31.5 -165t-105.5 -95z" />
<glyph unicode="&#x201c;" horiz-adv-x="786" d="M152 1112v150q0 105 28.5 158.5t106.5 97.5l35 -60q-53 -28 -75 -62t-22 -100h78v-184h-151zM483 1112v150q0 105 28.5 158.5t106.5 97.5l35 -60q-52 -29 -74 -62t-22 -100h78v-184h-152z" />
<glyph unicode="&#x201d;" horiz-adv-x="786" d="M133 1169q57 32 77.5 67t20.5 97h-79v185h151v-150q0 -110 -29.5 -163t-105.5 -93zM465 1169q57 32 77.5 67t20.5 97h-80v185h152v-150q0 -106 -29 -160.5t-106 -95.5z" />
<glyph unicode="&#x201e;" horiz-adv-x="786" d="M133 -121q54 29 76 63t22 101h-79v184h151v-149q0 -110 -29.5 -164t-105.5 -94zM465 -121q54 29 76 63t22 101h-80v184h152v-149q0 -106 -29 -161t-106 -97z" />
<glyph unicode="&#x2022;" horiz-adv-x="672" d="M213 485v275h248v-275h-248z" />
<glyph unicode="&#x2026;" horiz-adv-x="1300" d="M152 0v180h153v-180h-153zM571 0v180h154v-180h-154zM995 0v180h154v-180h-154z" />
<glyph unicode="&#x202f;" horiz-adv-x="382" />
<glyph unicode="&#x2039;" horiz-adv-x="827" d="M186 559l310 561h96l-303 -561l303 -559h-96z" />
<glyph unicode="&#x203a;" horiz-adv-x="827" d="M233 0l306 561l-306 559h99l309 -559l-309 -561h-99z" />
<glyph unicode="&#x205f;" horiz-adv-x="478" />
<glyph unicode="&#x20ac;" horiz-adv-x="1323" d="M88 578v94h222l-1 94l2 111h-223v92h230q28 300 155.5 436.5t364.5 136.5q104 0 182.5 -16t159.5 -58l-47 -88q-72 37 -142.5 51.5t-150.5 14.5q-190 0 -292.5 -111.5t-128.5 -365.5h570v-92h-577l-2 -109l1 -96h578v-94h-573q17 -191 64.5 -295t134 -156.5t223.5 -52.5 q84 0 155 13t142 56l53 -82q-78 -47 -161 -66.5t-193 -19.5q-169 0 -277 64.5t-166.5 193t-75.5 345.5h-227z" />
<glyph unicode="&#x2122;" horiz-adv-x="2204" d="M143 1438v80h742v-80h-330v-844h-84v844h-328zM989 594v924h96l345 -809l344 809h98v-924h-84v768l-326 -768h-65l-328 768v-768h-80z" />
<glyph unicode="&#x25fc;" horiz-adv-x="1120" d="M0 0v1120h1120v-1120h-1120z" />
</font>
</defs>
</svg>
